<?xml version="1.0" encoding="UTF-8"?>
<svg xmlns="http://www.w3.org/2000/svg" viewBox="0 0 400 200" width="400" height="200">
  <path d="M45.894628570900025,97.14589323445502C56.767549966218404,80.72633697863591 72.34686812639839,64.3712060583376 90.52659626492353,53.308112943899836C108.75266844478962,42.2168176230953 130.11246209103467,36.494756015418865 152.23682209660018,42.84132505919139L152.23682209660018,42.84132505919139C180.44908895408872,48.8598495751683 197.80941281800722,73.6136241610836 211.77433428146492,92.89876403516122C228.602235403056,116.13759339529989 237.5561533849488,126.36752707408928 255.96485892426716,130.91020015784372L255.9648589242672,130.91020015784372C268.4711738151486,135.46193448396227 282.10867749394407,135.41348414063293 298.2018695034333,127.21876414104378C313.9221741169679,119.21391994728744 328.51398171103244,107.0941987417717 339.73657142725006,92.86473308613755C343.6772705297485,87.19639800443014 351.466931832155,85.7958723247516 357.13526691386244,89.73657142725006C362.80360199556986,93.67727052974851 364.2041276752484,101.46693183215503 360.26342857274994,107.13526691386245C349.5165115323482,125.22739036742755 333.8323670560597,142.16974319585304 314.4829745046957,155.3466083516808C294.41735915788183,169.0112185967727 271.50056847704684,174.95935216870765 244.0351410757328,169.08979984215628L244.03514107573284,169.08979984215628C210.68031959975644,154.0249346164352 199.80378020221082,130.54842608138796 188.22566571853508,107.10123596483878C177.56178913679713,85.5054966979693 167.53722050113473,64.94254839856657 147.76317790339982,57.15867494080861L147.76317790339982,57.15867494080861C131.05793540558088,51.601991877623746 113.5791551145734,54.84044509378654 96.78855972694755,64.12651456337562C80.06753984812308,73.37410517064946 65.03300764285193,87.82309954003743 54.105371429099975,102.85410676554498C52.529091788100594,105.12144079822795 49.41322726713799,105.68165107009936 47.14589323445502,104.10537142909997C44.878559201772056,102.5290917881006 44.318348929900644,99.413227267138 45.894628570900025,97.14589323445503" fill="none" stroke="orangered" stroke-width="2"/>
</svg>
