<?xml version="1.0" encoding="UTF-8"?>
<svg xmlns="http://www.w3.org/2000/svg" viewBox="0 0 400 200" width="400" height="200">
  <path d="M45.894628570900025,97.14589323445502C56.767549966218404,80.72633697863591 72.34686812639839,64.3712060583376 90.52659626492353,53.308112943899836C108.75266844478962,42.2168176230953 130.11246209103467,36.494756015418865 152.23682209660018,42.84132505919139L152.23682209660018,42.84132505919139C180.67051580505975,47.82364652950753 199.37440542367622,72.87542993043581 213.91512233264038,91.60763022337235C232.67756785539055,115.77850774735435 239.7701997596289,122.13348167209631 257.45607365533397,126.13775019730464L257.45607365533397,126.13775019730464C268.4997222186723,130.4879287535841 280.26377636039837,132.85150225372112 296.94947681102843,125.05508381714861C312.937691503506,117.58456664197035 327.6036657954699,107.04383066721289 339.73657142725006,92.86473308613755C343.6772705297485,87.19639800443014 351.466931832155,85.7958723247516 357.13526691386244,89.73657142725006C362.80360199556986,93.67727052974851 364.2041276752484,101.46693183215503 360.26342857274994,107.13526691386245C350.04487971173626,126.35343624581819 335.19879740569604,142.72341869733825 315.7353671971005,157.51028867557596C294.4516223940551,173.6800986052582 273.2826579708956,177.82645977751218 242.54392634466603,173.86224980269535L242.54392634466603,173.86224980269537C206.04022707144088,154.12875053266782 198.1544939035117,135.03774121509375 186.08487766735962,108.39236977662765C176.32812174523363,86.85296201975078 166.9844684360582,65.36948035309369 147.76317790339982,57.15867494080861L147.76317790339982,57.15867494080861C131.05793540558088,51.601991877623746 113.5791551145734,54.84044509378654 96.78855972694755,64.12651456337562C80.06753984812308,73.37410517064946 65.03300764285193,87.82309954003743 54.105371429099975,102.85410676554498C52.529091788100594,105.12144079822795 49.41322726713799,105.68165107009936 47.14589323445502,104.10537142909997C44.878559201772056,102.5290917881006 44.318348929900644,99.413227267138 45.894628570900025,97.14589323445503" fill="none" stroke="orangered" stroke-width="1"/>
</svg>
