<?xml version="1.0" encoding="UTF-8"?>
<svg xmlns="http://www.w3.org/2000/svg" viewBox="0 0 400 200" width="400" height="200">
  <path d="M90.52659626492353,53.308112943899836C108.79440089907142,42.19142175226072 131.31018630912004,38.020644223088965 152.23682209660018,42.84132505919139C179.07623515780017,49.02407920612269 197.79506179720104,70.84082728135547 213.91512233264038,91.60763022337235C225.33359562573585,106.31757403872501 239.12837890952804,120.4894081592498 257.45607365533397,126.13775019730464C270.2257233950716,130.07317963546143 284.58112899793497,130.83421279080235 296.94947681102843,125.05508381714861C313.21557544897746,117.45472495374688 328.63608083623257,107.23725360416688 339.73657142725006,92.86473308613755C343.59943291970114,87.86323737715652 351.89878301778015,86.09610079661766 357.13526691386244,89.73657142725006C362.37331792668857,93.37813153750159 363.55106361984286,101.75006736683412 360.26342857274994,107.13526691386245C348.52329552417797,126.36579532398105 333.7354863966054,143.83513381626895 315.7353671971005,157.51028867557596C295.3203993476119,173.02006634400448 267.6683534129772,181.71270733785343 242.54392634466603,173.86224980269535C213.08126190968056,164.65625296978874 198.01389525108354,134.72734996118837 186.08487766735962,108.39236977662765C177.28488928837416,88.96516062395227 169.24699159010834,65.30450340012699 147.76317790339982,57.15867494080861C130.8840074618933,50.758748514469616 112.03951107698158,55.69194804299421 96.78855972694755,64.12651456337562C79.78680513430234,73.52936601726518 65.33140030746858,87.06481874798928 54.105371429099975,102.85410676554498C52.63157760866275,104.92698180991765 49.23785605160708,105.55973075634144 47.14589323445502,104.10537142909997C45.053882150356635,102.6509785460596 44.466647605656156,99.25027066022498 45.894628570900025,97.14589323445503C57.67925595096288,79.77920247784556 72.49914451454545,64.2785397737615 90.52659626492353,53.308112943899836Z" fill="#AFDBF5" stroke="orangered" stroke-width="1"/>
</svg>
