<?xml version="1.0" encoding="utf-8" standalone="no"?>
<!DOCTYPE svg PUBLIC "-//W3C//DTD SVG 1.1//EN"
  "http://www.w3.org/Graphics/SVG/1.1/DTD/svg11.dtd">
<svg xmlns:xlink="http://www.w3.org/1999/xlink" width="640.546875pt" height="663.180354pt" viewBox="0 0 640.546875 663.180354" xmlns="http://www.w3.org/2000/svg" version="1.1">
 <metadata>
  <rdf:RDF xmlns:dc="http://purl.org/dc/elements/1.1/" xmlns:cc="http://creativecommons.org/ns#" xmlns:rdf="http://www.w3.org/1999/02/22-rdf-syntax-ns#">
   <cc:Work>
    <dc:type rdf:resource="http://purl.org/dc/dcmitype/StillImage"/>
    <dc:date>2026-02-21T17:14:39.294171</dc:date>
    <dc:format>image/svg+xml</dc:format>
    <dc:creator>
     <cc:Agent>
      <dc:title>Matplotlib v3.10.8, https://matplotlib.org/</dc:title>
     </cc:Agent>
    </dc:creator>
   </cc:Work>
  </rdf:RDF>
 </metadata>
 <defs>
  <style type="text/css">*{stroke-linejoin: round; stroke-linecap: butt}</style>
 </defs>
 <g id="figure_1">
  <g id="patch_1">
   <path d="M 0 663.180354 
L 640.546875 663.180354 
L 640.546875 0 
L 0 0 
z
" style="fill: #fafafa"/>
  </g>
  <g id="axes_1">
   <g id="patch_2">
    <path d="M 98.106875 560.995245 
L 633.346875 560.995245 
L 633.346875 28.318125 
L 98.106875 28.318125 
z
" style="fill: #fafafa"/>
   </g>
   <g id="matplotlib.axis_1">
    <g id="xtick_1">
     <g id="line2d_1">
      <path d="M 98.106875 560.995245 
L 98.106875 28.318125 
" clip-path="url(#pfc24d0e52c)" style="fill: none; stroke: #dddddd; stroke-width: 0.6; stroke-linecap: square"/>
     </g>
     <g id="line2d_2"/>
     <g id="text_1">
      <!-- 0.0 -->
      <g style="fill: #555555" transform="translate(90.950469 571.333839) scale(0.09 -0.09)">
       <defs>
        <path id="DejaVuSans-30" d="M 2034 4250 
Q 1547 4250 1301 3770 
Q 1056 3291 1056 2328 
Q 1056 1369 1301 889 
Q 1547 409 2034 409 
Q 2525 409 2770 889 
Q 3016 1369 3016 2328 
Q 3016 3291 2770 3770 
Q 2525 4250 2034 4250 
z
M 2034 4750 
Q 2819 4750 3233 4129 
Q 3647 3509 3647 2328 
Q 3647 1150 3233 529 
Q 2819 -91 2034 -91 
Q 1250 -91 836 529 
Q 422 1150 422 2328 
Q 422 3509 836 4129 
Q 1250 4750 2034 4750 
z
" transform="scale(0.015625)"/>
        <path id="DejaVuSans-2e" d="M 684 794 
L 1344 794 
L 1344 0 
L 684 0 
L 684 794 
z
" transform="scale(0.015625)"/>
       </defs>
       <use xlink:href="#DejaVuSans-30"/>
       <use xlink:href="#DejaVuSans-2e" transform="translate(63.623047 0)"/>
       <use xlink:href="#DejaVuSans-30" transform="translate(95.410156 0)"/>
      </g>
     </g>
    </g>
    <g id="xtick_2">
     <g id="line2d_3">
      <path d="M 158.143666 560.995245 
L 158.143666 28.318125 
" clip-path="url(#pfc24d0e52c)" style="fill: none; stroke: #dddddd; stroke-width: 0.6; stroke-linecap: square"/>
     </g>
     <g id="line2d_4"/>
     <g id="text_2">
      <!-- 2.5 -->
      <g style="fill: #555555" transform="translate(150.98726 571.333839) scale(0.09 -0.09)">
       <defs>
        <path id="DejaVuSans-32" d="M 1228 531 
L 3431 531 
L 3431 0 
L 469 0 
L 469 531 
Q 828 903 1448 1529 
Q 2069 2156 2228 2338 
Q 2531 2678 2651 2914 
Q 2772 3150 2772 3378 
Q 2772 3750 2511 3984 
Q 2250 4219 1831 4219 
Q 1534 4219 1204 4116 
Q 875 4013 500 3803 
L 500 4441 
Q 881 4594 1212 4672 
Q 1544 4750 1819 4750 
Q 2544 4750 2975 4387 
Q 3406 4025 3406 3419 
Q 3406 3131 3298 2873 
Q 3191 2616 2906 2266 
Q 2828 2175 2409 1742 
Q 1991 1309 1228 531 
z
" transform="scale(0.015625)"/>
        <path id="DejaVuSans-35" d="M 691 4666 
L 3169 4666 
L 3169 4134 
L 1269 4134 
L 1269 2991 
Q 1406 3038 1543 3061 
Q 1681 3084 1819 3084 
Q 2600 3084 3056 2656 
Q 3513 2228 3513 1497 
Q 3513 744 3044 326 
Q 2575 -91 1722 -91 
Q 1428 -91 1123 -41 
Q 819 9 494 109 
L 494 744 
Q 775 591 1075 516 
Q 1375 441 1709 441 
Q 2250 441 2565 725 
Q 2881 1009 2881 1497 
Q 2881 1984 2565 2268 
Q 2250 2553 1709 2553 
Q 1456 2553 1204 2497 
Q 953 2441 691 2322 
L 691 4666 
z
" transform="scale(0.015625)"/>
       </defs>
       <use xlink:href="#DejaVuSans-32"/>
       <use xlink:href="#DejaVuSans-2e" transform="translate(63.623047 0)"/>
       <use xlink:href="#DejaVuSans-35" transform="translate(95.410156 0)"/>
      </g>
     </g>
    </g>
    <g id="xtick_3">
     <g id="line2d_5">
      <path d="M 218.180457 560.995245 
L 218.180457 28.318125 
" clip-path="url(#pfc24d0e52c)" style="fill: none; stroke: #dddddd; stroke-width: 0.6; stroke-linecap: square"/>
     </g>
     <g id="line2d_6"/>
     <g id="text_3">
      <!-- 5.0 -->
      <g style="fill: #555555" transform="translate(211.024051 571.333839) scale(0.09 -0.09)">
       <use xlink:href="#DejaVuSans-35"/>
       <use xlink:href="#DejaVuSans-2e" transform="translate(63.623047 0)"/>
       <use xlink:href="#DejaVuSans-30" transform="translate(95.410156 0)"/>
      </g>
     </g>
    </g>
    <g id="xtick_4">
     <g id="line2d_7">
      <path d="M 278.217248 560.995245 
L 278.217248 28.318125 
" clip-path="url(#pfc24d0e52c)" style="fill: none; stroke: #dddddd; stroke-width: 0.6; stroke-linecap: square"/>
     </g>
     <g id="line2d_8"/>
     <g id="text_4">
      <!-- 7.5 -->
      <g style="fill: #555555" transform="translate(271.060842 571.333839) scale(0.09 -0.09)">
       <defs>
        <path id="DejaVuSans-37" d="M 525 4666 
L 3525 4666 
L 3525 4397 
L 1831 0 
L 1172 0 
L 2766 4134 
L 525 4134 
L 525 4666 
z
" transform="scale(0.015625)"/>
       </defs>
       <use xlink:href="#DejaVuSans-37"/>
       <use xlink:href="#DejaVuSans-2e" transform="translate(63.623047 0)"/>
       <use xlink:href="#DejaVuSans-35" transform="translate(95.410156 0)"/>
      </g>
     </g>
    </g>
    <g id="xtick_5">
     <g id="line2d_9">
      <path d="M 338.254039 560.995245 
L 338.254039 28.318125 
" clip-path="url(#pfc24d0e52c)" style="fill: none; stroke: #dddddd; stroke-width: 0.6; stroke-linecap: square"/>
     </g>
     <g id="line2d_10"/>
     <g id="text_5">
      <!-- 10.0 -->
      <g style="fill: #555555" transform="translate(328.234508 571.333839) scale(0.09 -0.09)">
       <defs>
        <path id="DejaVuSans-31" d="M 794 531 
L 1825 531 
L 1825 4091 
L 703 3866 
L 703 4441 
L 1819 4666 
L 2450 4666 
L 2450 531 
L 3481 531 
L 3481 0 
L 794 0 
L 794 531 
z
" transform="scale(0.015625)"/>
       </defs>
       <use xlink:href="#DejaVuSans-31"/>
       <use xlink:href="#DejaVuSans-30" transform="translate(63.623047 0)"/>
       <use xlink:href="#DejaVuSans-2e" transform="translate(127.246094 0)"/>
       <use xlink:href="#DejaVuSans-30" transform="translate(159.033203 0)"/>
      </g>
     </g>
    </g>
    <g id="xtick_6">
     <g id="line2d_11">
      <path d="M 398.29083 560.995245 
L 398.29083 28.318125 
" clip-path="url(#pfc24d0e52c)" style="fill: none; stroke: #dddddd; stroke-width: 0.6; stroke-linecap: square"/>
     </g>
     <g id="line2d_12"/>
     <g id="text_6">
      <!-- 12.5 -->
      <g style="fill: #555555" transform="translate(388.271299 571.333839) scale(0.09 -0.09)">
       <use xlink:href="#DejaVuSans-31"/>
       <use xlink:href="#DejaVuSans-32" transform="translate(63.623047 0)"/>
       <use xlink:href="#DejaVuSans-2e" transform="translate(127.246094 0)"/>
       <use xlink:href="#DejaVuSans-35" transform="translate(159.033203 0)"/>
      </g>
     </g>
    </g>
    <g id="xtick_7">
     <g id="line2d_13">
      <path d="M 458.327622 560.995245 
L 458.327622 28.318125 
" clip-path="url(#pfc24d0e52c)" style="fill: none; stroke: #dddddd; stroke-width: 0.6; stroke-linecap: square"/>
     </g>
     <g id="line2d_14"/>
     <g id="text_7">
      <!-- 15.0 -->
      <g style="fill: #555555" transform="translate(448.30809 571.333839) scale(0.09 -0.09)">
       <use xlink:href="#DejaVuSans-31"/>
       <use xlink:href="#DejaVuSans-35" transform="translate(63.623047 0)"/>
       <use xlink:href="#DejaVuSans-2e" transform="translate(127.246094 0)"/>
       <use xlink:href="#DejaVuSans-30" transform="translate(159.033203 0)"/>
      </g>
     </g>
    </g>
    <g id="xtick_8">
     <g id="line2d_15">
      <path d="M 518.364413 560.995245 
L 518.364413 28.318125 
" clip-path="url(#pfc24d0e52c)" style="fill: none; stroke: #dddddd; stroke-width: 0.6; stroke-linecap: square"/>
     </g>
     <g id="line2d_16"/>
     <g id="text_8">
      <!-- 17.5 -->
      <g style="fill: #555555" transform="translate(508.344881 571.333839) scale(0.09 -0.09)">
       <use xlink:href="#DejaVuSans-31"/>
       <use xlink:href="#DejaVuSans-37" transform="translate(63.623047 0)"/>
       <use xlink:href="#DejaVuSans-2e" transform="translate(127.246094 0)"/>
       <use xlink:href="#DejaVuSans-35" transform="translate(159.033203 0)"/>
      </g>
     </g>
    </g>
    <g id="xtick_9">
     <g id="line2d_17">
      <path d="M 578.401204 560.995245 
L 578.401204 28.318125 
" clip-path="url(#pfc24d0e52c)" style="fill: none; stroke: #dddddd; stroke-width: 0.6; stroke-linecap: square"/>
     </g>
     <g id="line2d_18"/>
     <g id="text_9">
      <!-- 20.0 -->
      <g style="fill: #555555" transform="translate(568.381673 571.333839) scale(0.09 -0.09)">
       <use xlink:href="#DejaVuSans-32"/>
       <use xlink:href="#DejaVuSans-30" transform="translate(63.623047 0)"/>
       <use xlink:href="#DejaVuSans-2e" transform="translate(127.246094 0)"/>
       <use xlink:href="#DejaVuSans-30" transform="translate(159.033203 0)"/>
      </g>
     </g>
    </g>
    <g id="text_10">
     <!-- Tokens per word (lower is better) -->
     <g transform="translate(283.489375 590.803995) scale(0.1 -0.1)">
      <defs>
       <path id="DejaVuSans-54" d="M -19 4666 
L 3928 4666 
L 3928 4134 
L 2272 4134 
L 2272 0 
L 1638 0 
L 1638 4134 
L -19 4134 
L -19 4666 
z
" transform="scale(0.015625)"/>
       <path id="DejaVuSans-6f" d="M 1959 3097 
Q 1497 3097 1228 2736 
Q 959 2375 959 1747 
Q 959 1119 1226 758 
Q 1494 397 1959 397 
Q 2419 397 2687 759 
Q 2956 1122 2956 1747 
Q 2956 2369 2687 2733 
Q 2419 3097 1959 3097 
z
M 1959 3584 
Q 2709 3584 3137 3096 
Q 3566 2609 3566 1747 
Q 3566 888 3137 398 
Q 2709 -91 1959 -91 
Q 1206 -91 779 398 
Q 353 888 353 1747 
Q 353 2609 779 3096 
Q 1206 3584 1959 3584 
z
" transform="scale(0.015625)"/>
       <path id="DejaVuSans-6b" d="M 581 4863 
L 1159 4863 
L 1159 1991 
L 2875 3500 
L 3609 3500 
L 1753 1863 
L 3688 0 
L 2938 0 
L 1159 1709 
L 1159 0 
L 581 0 
L 581 4863 
z
" transform="scale(0.015625)"/>
       <path id="DejaVuSans-65" d="M 3597 1894 
L 3597 1613 
L 953 1613 
Q 991 1019 1311 708 
Q 1631 397 2203 397 
Q 2534 397 2845 478 
Q 3156 559 3463 722 
L 3463 178 
Q 3153 47 2828 -22 
Q 2503 -91 2169 -91 
Q 1331 -91 842 396 
Q 353 884 353 1716 
Q 353 2575 817 3079 
Q 1281 3584 2069 3584 
Q 2775 3584 3186 3129 
Q 3597 2675 3597 1894 
z
M 3022 2063 
Q 3016 2534 2758 2815 
Q 2500 3097 2075 3097 
Q 1594 3097 1305 2825 
Q 1016 2553 972 2059 
L 3022 2063 
z
" transform="scale(0.015625)"/>
       <path id="DejaVuSans-6e" d="M 3513 2113 
L 3513 0 
L 2938 0 
L 2938 2094 
Q 2938 2591 2744 2837 
Q 2550 3084 2163 3084 
Q 1697 3084 1428 2787 
Q 1159 2491 1159 1978 
L 1159 0 
L 581 0 
L 581 3500 
L 1159 3500 
L 1159 2956 
Q 1366 3272 1645 3428 
Q 1925 3584 2291 3584 
Q 2894 3584 3203 3211 
Q 3513 2838 3513 2113 
z
" transform="scale(0.015625)"/>
       <path id="DejaVuSans-73" d="M 2834 3397 
L 2834 2853 
Q 2591 2978 2328 3040 
Q 2066 3103 1784 3103 
Q 1356 3103 1142 2972 
Q 928 2841 928 2578 
Q 928 2378 1081 2264 
Q 1234 2150 1697 2047 
L 1894 2003 
Q 2506 1872 2764 1633 
Q 3022 1394 3022 966 
Q 3022 478 2636 193 
Q 2250 -91 1575 -91 
Q 1294 -91 989 -36 
Q 684 19 347 128 
L 347 722 
Q 666 556 975 473 
Q 1284 391 1588 391 
Q 1994 391 2212 530 
Q 2431 669 2431 922 
Q 2431 1156 2273 1281 
Q 2116 1406 1581 1522 
L 1381 1569 
Q 847 1681 609 1914 
Q 372 2147 372 2553 
Q 372 3047 722 3315 
Q 1072 3584 1716 3584 
Q 2034 3584 2315 3537 
Q 2597 3491 2834 3397 
z
" transform="scale(0.015625)"/>
       <path id="DejaVuSans-20" transform="scale(0.015625)"/>
       <path id="DejaVuSans-70" d="M 1159 525 
L 1159 -1331 
L 581 -1331 
L 581 3500 
L 1159 3500 
L 1159 2969 
Q 1341 3281 1617 3432 
Q 1894 3584 2278 3584 
Q 2916 3584 3314 3078 
Q 3713 2572 3713 1747 
Q 3713 922 3314 415 
Q 2916 -91 2278 -91 
Q 1894 -91 1617 61 
Q 1341 213 1159 525 
z
M 3116 1747 
Q 3116 2381 2855 2742 
Q 2594 3103 2138 3103 
Q 1681 3103 1420 2742 
Q 1159 2381 1159 1747 
Q 1159 1113 1420 752 
Q 1681 391 2138 391 
Q 2594 391 2855 752 
Q 3116 1113 3116 1747 
z
" transform="scale(0.015625)"/>
       <path id="DejaVuSans-72" d="M 2631 2963 
Q 2534 3019 2420 3045 
Q 2306 3072 2169 3072 
Q 1681 3072 1420 2755 
Q 1159 2438 1159 1844 
L 1159 0 
L 581 0 
L 581 3500 
L 1159 3500 
L 1159 2956 
Q 1341 3275 1631 3429 
Q 1922 3584 2338 3584 
Q 2397 3584 2469 3576 
Q 2541 3569 2628 3553 
L 2631 2963 
z
" transform="scale(0.015625)"/>
       <path id="DejaVuSans-77" d="M 269 3500 
L 844 3500 
L 1563 769 
L 2278 3500 
L 2956 3500 
L 3675 769 
L 4391 3500 
L 4966 3500 
L 4050 0 
L 3372 0 
L 2619 2869 
L 1863 0 
L 1184 0 
L 269 3500 
z
" transform="scale(0.015625)"/>
       <path id="DejaVuSans-64" d="M 2906 2969 
L 2906 4863 
L 3481 4863 
L 3481 0 
L 2906 0 
L 2906 525 
Q 2725 213 2448 61 
Q 2172 -91 1784 -91 
Q 1150 -91 751 415 
Q 353 922 353 1747 
Q 353 2572 751 3078 
Q 1150 3584 1784 3584 
Q 2172 3584 2448 3432 
Q 2725 3281 2906 2969 
z
M 947 1747 
Q 947 1113 1208 752 
Q 1469 391 1925 391 
Q 2381 391 2643 752 
Q 2906 1113 2906 1747 
Q 2906 2381 2643 2742 
Q 2381 3103 1925 3103 
Q 1469 3103 1208 2742 
Q 947 2381 947 1747 
z
" transform="scale(0.015625)"/>
       <path id="DejaVuSans-28" d="M 1984 4856 
Q 1566 4138 1362 3434 
Q 1159 2731 1159 2009 
Q 1159 1288 1364 580 
Q 1569 -128 1984 -844 
L 1484 -844 
Q 1016 -109 783 600 
Q 550 1309 550 2009 
Q 550 2706 781 3412 
Q 1013 4119 1484 4856 
L 1984 4856 
z
" transform="scale(0.015625)"/>
       <path id="DejaVuSans-6c" d="M 603 4863 
L 1178 4863 
L 1178 0 
L 603 0 
L 603 4863 
z
" transform="scale(0.015625)"/>
       <path id="DejaVuSans-69" d="M 603 3500 
L 1178 3500 
L 1178 0 
L 603 0 
L 603 3500 
z
M 603 4863 
L 1178 4863 
L 1178 4134 
L 603 4134 
L 603 4863 
z
" transform="scale(0.015625)"/>
       <path id="DejaVuSans-62" d="M 3116 1747 
Q 3116 2381 2855 2742 
Q 2594 3103 2138 3103 
Q 1681 3103 1420 2742 
Q 1159 2381 1159 1747 
Q 1159 1113 1420 752 
Q 1681 391 2138 391 
Q 2594 391 2855 752 
Q 3116 1113 3116 1747 
z
M 1159 2969 
Q 1341 3281 1617 3432 
Q 1894 3584 2278 3584 
Q 2916 3584 3314 3078 
Q 3713 2572 3713 1747 
Q 3713 922 3314 415 
Q 2916 -91 2278 -91 
Q 1894 -91 1617 61 
Q 1341 213 1159 525 
L 1159 0 
L 581 0 
L 581 4863 
L 1159 4863 
L 1159 2969 
z
" transform="scale(0.015625)"/>
       <path id="DejaVuSans-74" d="M 1172 4494 
L 1172 3500 
L 2356 3500 
L 2356 3053 
L 1172 3053 
L 1172 1153 
Q 1172 725 1289 603 
Q 1406 481 1766 481 
L 2356 481 
L 2356 0 
L 1766 0 
Q 1100 0 847 248 
Q 594 497 594 1153 
L 594 3053 
L 172 3053 
L 172 3500 
L 594 3500 
L 594 4494 
L 1172 4494 
z
" transform="scale(0.015625)"/>
       <path id="DejaVuSans-29" d="M 513 4856 
L 1013 4856 
Q 1481 4119 1714 3412 
Q 1947 2706 1947 2009 
Q 1947 1309 1714 600 
Q 1481 -109 1013 -844 
L 513 -844 
Q 928 -128 1133 580 
Q 1338 1288 1338 2009 
Q 1338 2731 1133 3434 
Q 928 4138 513 4856 
z
" transform="scale(0.015625)"/>
      </defs>
      <use xlink:href="#DejaVuSans-54"/>
      <use xlink:href="#DejaVuSans-6f" transform="translate(44.083984 0)"/>
      <use xlink:href="#DejaVuSans-6b" transform="translate(105.265625 0)"/>
      <use xlink:href="#DejaVuSans-65" transform="translate(159.550781 0)"/>
      <use xlink:href="#DejaVuSans-6e" transform="translate(221.074219 0)"/>
      <use xlink:href="#DejaVuSans-73" transform="translate(284.453125 0)"/>
      <use xlink:href="#DejaVuSans-20" transform="translate(336.552734 0)"/>
      <use xlink:href="#DejaVuSans-70" transform="translate(368.339844 0)"/>
      <use xlink:href="#DejaVuSans-65" transform="translate(431.816406 0)"/>
      <use xlink:href="#DejaVuSans-72" transform="translate(493.339844 0)"/>
      <use xlink:href="#DejaVuSans-20" transform="translate(534.453125 0)"/>
      <use xlink:href="#DejaVuSans-77" transform="translate(566.240234 0)"/>
      <use xlink:href="#DejaVuSans-6f" transform="translate(648.027344 0)"/>
      <use xlink:href="#DejaVuSans-72" transform="translate(709.208984 0)"/>
      <use xlink:href="#DejaVuSans-64" transform="translate(748.572266 0)"/>
      <use xlink:href="#DejaVuSans-20" transform="translate(812.048828 0)"/>
      <use xlink:href="#DejaVuSans-28" transform="translate(843.835938 0)"/>
      <use xlink:href="#DejaVuSans-6c" transform="translate(882.849609 0)"/>
      <use xlink:href="#DejaVuSans-6f" transform="translate(910.632812 0)"/>
      <use xlink:href="#DejaVuSans-77" transform="translate(971.814453 0)"/>
      <use xlink:href="#DejaVuSans-65" transform="translate(1053.601562 0)"/>
      <use xlink:href="#DejaVuSans-72" transform="translate(1115.125 0)"/>
      <use xlink:href="#DejaVuSans-20" transform="translate(1156.238281 0)"/>
      <use xlink:href="#DejaVuSans-69" transform="translate(1188.025391 0)"/>
      <use xlink:href="#DejaVuSans-73" transform="translate(1215.808594 0)"/>
      <use xlink:href="#DejaVuSans-20" transform="translate(1267.908203 0)"/>
      <use xlink:href="#DejaVuSans-62" transform="translate(1299.695312 0)"/>
      <use xlink:href="#DejaVuSans-65" transform="translate(1363.171875 0)"/>
      <use xlink:href="#DejaVuSans-74" transform="translate(1424.695312 0)"/>
      <use xlink:href="#DejaVuSans-74" transform="translate(1463.904297 0)"/>
      <use xlink:href="#DejaVuSans-65" transform="translate(1503.113281 0)"/>
      <use xlink:href="#DejaVuSans-72" transform="translate(1564.636719 0)"/>
      <use xlink:href="#DejaVuSans-29" transform="translate(1605.75 0)"/>
     </g>
     <!-- Evaluation text: 175-word Malayalam paragraph. Token counts include special tokens. -->
     <g transform="translate(150.421406 602.001807) scale(0.1 -0.1)">
      <defs>
       <path id="DejaVuSans-45" d="M 628 4666 
L 3578 4666 
L 3578 4134 
L 1259 4134 
L 1259 2753 
L 3481 2753 
L 3481 2222 
L 1259 2222 
L 1259 531 
L 3634 531 
L 3634 0 
L 628 0 
L 628 4666 
z
" transform="scale(0.015625)"/>
       <path id="DejaVuSans-76" d="M 191 3500 
L 800 3500 
L 1894 563 
L 2988 3500 
L 3597 3500 
L 2284 0 
L 1503 0 
L 191 3500 
z
" transform="scale(0.015625)"/>
       <path id="DejaVuSans-61" d="M 2194 1759 
Q 1497 1759 1228 1600 
Q 959 1441 959 1056 
Q 959 750 1161 570 
Q 1363 391 1709 391 
Q 2188 391 2477 730 
Q 2766 1069 2766 1631 
L 2766 1759 
L 2194 1759 
z
M 3341 1997 
L 3341 0 
L 2766 0 
L 2766 531 
Q 2569 213 2275 61 
Q 1981 -91 1556 -91 
Q 1019 -91 701 211 
Q 384 513 384 1019 
Q 384 1609 779 1909 
Q 1175 2209 1959 2209 
L 2766 2209 
L 2766 2266 
Q 2766 2663 2505 2880 
Q 2244 3097 1772 3097 
Q 1472 3097 1187 3025 
Q 903 2953 641 2809 
L 641 3341 
Q 956 3463 1253 3523 
Q 1550 3584 1831 3584 
Q 2591 3584 2966 3190 
Q 3341 2797 3341 1997 
z
" transform="scale(0.015625)"/>
       <path id="DejaVuSans-75" d="M 544 1381 
L 544 3500 
L 1119 3500 
L 1119 1403 
Q 1119 906 1312 657 
Q 1506 409 1894 409 
Q 2359 409 2629 706 
Q 2900 1003 2900 1516 
L 2900 3500 
L 3475 3500 
L 3475 0 
L 2900 0 
L 2900 538 
Q 2691 219 2414 64 
Q 2138 -91 1772 -91 
Q 1169 -91 856 284 
Q 544 659 544 1381 
z
M 1991 3584 
L 1991 3584 
z
" transform="scale(0.015625)"/>
       <path id="DejaVuSans-78" d="M 3513 3500 
L 2247 1797 
L 3578 0 
L 2900 0 
L 1881 1375 
L 863 0 
L 184 0 
L 1544 1831 
L 300 3500 
L 978 3500 
L 1906 2253 
L 2834 3500 
L 3513 3500 
z
" transform="scale(0.015625)"/>
       <path id="DejaVuSans-3a" d="M 750 794 
L 1409 794 
L 1409 0 
L 750 0 
L 750 794 
z
M 750 3309 
L 1409 3309 
L 1409 2516 
L 750 2516 
L 750 3309 
z
" transform="scale(0.015625)"/>
       <path id="DejaVuSans-2d" d="M 313 2009 
L 1997 2009 
L 1997 1497 
L 313 1497 
L 313 2009 
z
" transform="scale(0.015625)"/>
       <path id="DejaVuSans-4d" d="M 628 4666 
L 1569 4666 
L 2759 1491 
L 3956 4666 
L 4897 4666 
L 4897 0 
L 4281 0 
L 4281 4097 
L 3078 897 
L 2444 897 
L 1241 4097 
L 1241 0 
L 628 0 
L 628 4666 
z
" transform="scale(0.015625)"/>
       <path id="DejaVuSans-79" d="M 2059 -325 
Q 1816 -950 1584 -1140 
Q 1353 -1331 966 -1331 
L 506 -1331 
L 506 -850 
L 844 -850 
Q 1081 -850 1212 -737 
Q 1344 -625 1503 -206 
L 1606 56 
L 191 3500 
L 800 3500 
L 1894 763 
L 2988 3500 
L 3597 3500 
L 2059 -325 
z
" transform="scale(0.015625)"/>
       <path id="DejaVuSans-6d" d="M 3328 2828 
Q 3544 3216 3844 3400 
Q 4144 3584 4550 3584 
Q 5097 3584 5394 3201 
Q 5691 2819 5691 2113 
L 5691 0 
L 5113 0 
L 5113 2094 
Q 5113 2597 4934 2840 
Q 4756 3084 4391 3084 
Q 3944 3084 3684 2787 
Q 3425 2491 3425 1978 
L 3425 0 
L 2847 0 
L 2847 2094 
Q 2847 2600 2669 2842 
Q 2491 3084 2119 3084 
Q 1678 3084 1418 2786 
Q 1159 2488 1159 1978 
L 1159 0 
L 581 0 
L 581 3500 
L 1159 3500 
L 1159 2956 
Q 1356 3278 1631 3431 
Q 1906 3584 2284 3584 
Q 2666 3584 2933 3390 
Q 3200 3197 3328 2828 
z
" transform="scale(0.015625)"/>
       <path id="DejaVuSans-67" d="M 2906 1791 
Q 2906 2416 2648 2759 
Q 2391 3103 1925 3103 
Q 1463 3103 1205 2759 
Q 947 2416 947 1791 
Q 947 1169 1205 825 
Q 1463 481 1925 481 
Q 2391 481 2648 825 
Q 2906 1169 2906 1791 
z
M 3481 434 
Q 3481 -459 3084 -895 
Q 2688 -1331 1869 -1331 
Q 1566 -1331 1297 -1286 
Q 1028 -1241 775 -1147 
L 775 -588 
Q 1028 -725 1275 -790 
Q 1522 -856 1778 -856 
Q 2344 -856 2625 -561 
Q 2906 -266 2906 331 
L 2906 616 
Q 2728 306 2450 153 
Q 2172 0 1784 0 
Q 1141 0 747 490 
Q 353 981 353 1791 
Q 353 2603 747 3093 
Q 1141 3584 1784 3584 
Q 2172 3584 2450 3431 
Q 2728 3278 2906 2969 
L 2906 3500 
L 3481 3500 
L 3481 434 
z
" transform="scale(0.015625)"/>
       <path id="DejaVuSans-68" d="M 3513 2113 
L 3513 0 
L 2938 0 
L 2938 2094 
Q 2938 2591 2744 2837 
Q 2550 3084 2163 3084 
Q 1697 3084 1428 2787 
Q 1159 2491 1159 1978 
L 1159 0 
L 581 0 
L 581 4863 
L 1159 4863 
L 1159 2956 
Q 1366 3272 1645 3428 
Q 1925 3584 2291 3584 
Q 2894 3584 3203 3211 
Q 3513 2838 3513 2113 
z
" transform="scale(0.015625)"/>
       <path id="DejaVuSans-63" d="M 3122 3366 
L 3122 2828 
Q 2878 2963 2633 3030 
Q 2388 3097 2138 3097 
Q 1578 3097 1268 2742 
Q 959 2388 959 1747 
Q 959 1106 1268 751 
Q 1578 397 2138 397 
Q 2388 397 2633 464 
Q 2878 531 3122 666 
L 3122 134 
Q 2881 22 2623 -34 
Q 2366 -91 2075 -91 
Q 1284 -91 818 406 
Q 353 903 353 1747 
Q 353 2603 823 3093 
Q 1294 3584 2113 3584 
Q 2378 3584 2631 3529 
Q 2884 3475 3122 3366 
z
" transform="scale(0.015625)"/>
      </defs>
      <use xlink:href="#DejaVuSans-45"/>
      <use xlink:href="#DejaVuSans-76" transform="translate(63.183594 0)"/>
      <use xlink:href="#DejaVuSans-61" transform="translate(122.363281 0)"/>
      <use xlink:href="#DejaVuSans-6c" transform="translate(183.642578 0)"/>
      <use xlink:href="#DejaVuSans-75" transform="translate(211.425781 0)"/>
      <use xlink:href="#DejaVuSans-61" transform="translate(274.804688 0)"/>
      <use xlink:href="#DejaVuSans-74" transform="translate(336.083984 0)"/>
      <use xlink:href="#DejaVuSans-69" transform="translate(375.292969 0)"/>
      <use xlink:href="#DejaVuSans-6f" transform="translate(403.076172 0)"/>
      <use xlink:href="#DejaVuSans-6e" transform="translate(464.257812 0)"/>
      <use xlink:href="#DejaVuSans-20" transform="translate(527.636719 0)"/>
      <use xlink:href="#DejaVuSans-74" transform="translate(559.423828 0)"/>
      <use xlink:href="#DejaVuSans-65" transform="translate(598.632812 0)"/>
      <use xlink:href="#DejaVuSans-78" transform="translate(658.40625 0)"/>
      <use xlink:href="#DejaVuSans-74" transform="translate(717.585938 0)"/>
      <use xlink:href="#DejaVuSans-3a" transform="translate(756.794922 0)"/>
      <use xlink:href="#DejaVuSans-20" transform="translate(790.486328 0)"/>
      <use xlink:href="#DejaVuSans-31" transform="translate(822.273438 0)"/>
      <use xlink:href="#DejaVuSans-37" transform="translate(885.896484 0)"/>
      <use xlink:href="#DejaVuSans-35" transform="translate(949.519531 0)"/>
      <use xlink:href="#DejaVuSans-2d" transform="translate(1013.142578 0)"/>
      <use xlink:href="#DejaVuSans-77" transform="translate(1049.226562 0)"/>
      <use xlink:href="#DejaVuSans-6f" transform="translate(1131.013672 0)"/>
      <use xlink:href="#DejaVuSans-72" transform="translate(1192.195312 0)"/>
      <use xlink:href="#DejaVuSans-64" transform="translate(1231.558594 0)"/>
      <use xlink:href="#DejaVuSans-20" transform="translate(1295.035156 0)"/>
      <use xlink:href="#DejaVuSans-4d" transform="translate(1326.822266 0)"/>
      <use xlink:href="#DejaVuSans-61" transform="translate(1413.101562 0)"/>
      <use xlink:href="#DejaVuSans-6c" transform="translate(1474.380859 0)"/>
      <use xlink:href="#DejaVuSans-61" transform="translate(1502.164062 0)"/>
      <use xlink:href="#DejaVuSans-79" transform="translate(1563.443359 0)"/>
      <use xlink:href="#DejaVuSans-61" transform="translate(1622.623047 0)"/>
      <use xlink:href="#DejaVuSans-6c" transform="translate(1683.902344 0)"/>
      <use xlink:href="#DejaVuSans-61" transform="translate(1711.685547 0)"/>
      <use xlink:href="#DejaVuSans-6d" transform="translate(1772.964844 0)"/>
      <use xlink:href="#DejaVuSans-20" transform="translate(1870.376953 0)"/>
      <use xlink:href="#DejaVuSans-70" transform="translate(1902.164062 0)"/>
      <use xlink:href="#DejaVuSans-61" transform="translate(1965.640625 0)"/>
      <use xlink:href="#DejaVuSans-72" transform="translate(2026.919922 0)"/>
      <use xlink:href="#DejaVuSans-61" transform="translate(2068.033203 0)"/>
      <use xlink:href="#DejaVuSans-67" transform="translate(2129.3125 0)"/>
      <use xlink:href="#DejaVuSans-72" transform="translate(2192.789062 0)"/>
      <use xlink:href="#DejaVuSans-61" transform="translate(2233.902344 0)"/>
      <use xlink:href="#DejaVuSans-70" transform="translate(2295.181641 0)"/>
      <use xlink:href="#DejaVuSans-68" transform="translate(2358.658203 0)"/>
      <use xlink:href="#DejaVuSans-2e" transform="translate(2422.037109 0)"/>
      <use xlink:href="#DejaVuSans-20" transform="translate(2453.824219 0)"/>
      <use xlink:href="#DejaVuSans-54" transform="translate(2485.611328 0)"/>
      <use xlink:href="#DejaVuSans-6f" transform="translate(2529.695312 0)"/>
      <use xlink:href="#DejaVuSans-6b" transform="translate(2590.876953 0)"/>
      <use xlink:href="#DejaVuSans-65" transform="translate(2645.162109 0)"/>
      <use xlink:href="#DejaVuSans-6e" transform="translate(2706.685547 0)"/>
      <use xlink:href="#DejaVuSans-20" transform="translate(2770.064453 0)"/>
      <use xlink:href="#DejaVuSans-63" transform="translate(2801.851562 0)"/>
      <use xlink:href="#DejaVuSans-6f" transform="translate(2856.832031 0)"/>
      <use xlink:href="#DejaVuSans-75" transform="translate(2918.013672 0)"/>
      <use xlink:href="#DejaVuSans-6e" transform="translate(2981.392578 0)"/>
      <use xlink:href="#DejaVuSans-74" transform="translate(3044.771484 0)"/>
      <use xlink:href="#DejaVuSans-73" transform="translate(3083.980469 0)"/>
      <use xlink:href="#DejaVuSans-20" transform="translate(3136.080078 0)"/>
      <use xlink:href="#DejaVuSans-69" transform="translate(3167.867188 0)"/>
      <use xlink:href="#DejaVuSans-6e" transform="translate(3195.650391 0)"/>
      <use xlink:href="#DejaVuSans-63" transform="translate(3259.029297 0)"/>
      <use xlink:href="#DejaVuSans-6c" transform="translate(3314.009766 0)"/>
      <use xlink:href="#DejaVuSans-75" transform="translate(3341.792969 0)"/>
      <use xlink:href="#DejaVuSans-64" transform="translate(3405.171875 0)"/>
      <use xlink:href="#DejaVuSans-65" transform="translate(3468.648438 0)"/>
      <use xlink:href="#DejaVuSans-20" transform="translate(3530.171875 0)"/>
      <use xlink:href="#DejaVuSans-73" transform="translate(3561.958984 0)"/>
      <use xlink:href="#DejaVuSans-70" transform="translate(3614.058594 0)"/>
      <use xlink:href="#DejaVuSans-65" transform="translate(3677.535156 0)"/>
      <use xlink:href="#DejaVuSans-63" transform="translate(3739.058594 0)"/>
      <use xlink:href="#DejaVuSans-69" transform="translate(3794.039062 0)"/>
      <use xlink:href="#DejaVuSans-61" transform="translate(3821.822266 0)"/>
      <use xlink:href="#DejaVuSans-6c" transform="translate(3883.101562 0)"/>
      <use xlink:href="#DejaVuSans-20" transform="translate(3910.884766 0)"/>
      <use xlink:href="#DejaVuSans-74" transform="translate(3942.671875 0)"/>
      <use xlink:href="#DejaVuSans-6f" transform="translate(3981.880859 0)"/>
      <use xlink:href="#DejaVuSans-6b" transform="translate(4043.0625 0)"/>
      <use xlink:href="#DejaVuSans-65" transform="translate(4097.347656 0)"/>
      <use xlink:href="#DejaVuSans-6e" transform="translate(4158.871094 0)"/>
      <use xlink:href="#DejaVuSans-73" transform="translate(4222.25 0)"/>
      <use xlink:href="#DejaVuSans-2e" transform="translate(4274.349609 0)"/>
     </g>
    </g>
   </g>
   <g id="matplotlib.axis_2">
    <g id="ytick_1">
     <g id="line2d_19"/>
     <g id="text_11">
      <!-- SmolDocling -->
      <g transform="translate(38.316094 529.519918) scale(0.09 -0.09)">
       <defs>
        <path id="DejaVuSans-53" d="M 3425 4513 
L 3425 3897 
Q 3066 4069 2747 4153 
Q 2428 4238 2131 4238 
Q 1616 4238 1336 4038 
Q 1056 3838 1056 3469 
Q 1056 3159 1242 3001 
Q 1428 2844 1947 2747 
L 2328 2669 
Q 3034 2534 3370 2195 
Q 3706 1856 3706 1288 
Q 3706 609 3251 259 
Q 2797 -91 1919 -91 
Q 1588 -91 1214 -16 
Q 841 59 441 206 
L 441 856 
Q 825 641 1194 531 
Q 1563 422 1919 422 
Q 2459 422 2753 634 
Q 3047 847 3047 1241 
Q 3047 1584 2836 1778 
Q 2625 1972 2144 2069 
L 1759 2144 
Q 1053 2284 737 2584 
Q 422 2884 422 3419 
Q 422 4038 858 4394 
Q 1294 4750 2059 4750 
Q 2388 4750 2728 4690 
Q 3069 4631 3425 4513 
z
" transform="scale(0.015625)"/>
        <path id="DejaVuSans-44" d="M 1259 4147 
L 1259 519 
L 2022 519 
Q 2988 519 3436 956 
Q 3884 1394 3884 2338 
Q 3884 3275 3436 3711 
Q 2988 4147 2022 4147 
L 1259 4147 
z
M 628 4666 
L 1925 4666 
Q 3281 4666 3915 4102 
Q 4550 3538 4550 2338 
Q 4550 1131 3912 565 
Q 3275 0 1925 0 
L 628 0 
L 628 4666 
z
" transform="scale(0.015625)"/>
       </defs>
       <use xlink:href="#DejaVuSans-53"/>
       <use xlink:href="#DejaVuSans-6d" transform="translate(63.476562 0)"/>
       <use xlink:href="#DejaVuSans-6f" transform="translate(160.888672 0)"/>
       <use xlink:href="#DejaVuSans-6c" transform="translate(222.070312 0)"/>
       <use xlink:href="#DejaVuSans-44" transform="translate(249.853516 0)"/>
       <use xlink:href="#DejaVuSans-6f" transform="translate(326.855469 0)"/>
       <use xlink:href="#DejaVuSans-63" transform="translate(388.037109 0)"/>
       <use xlink:href="#DejaVuSans-6c" transform="translate(443.017578 0)"/>
       <use xlink:href="#DejaVuSans-69" transform="translate(470.800781 0)"/>
       <use xlink:href="#DejaVuSans-6e" transform="translate(498.583984 0)"/>
       <use xlink:href="#DejaVuSans-67" transform="translate(561.962891 0)"/>
      </g>
     </g>
    </g>
    <g id="ytick_2">
     <g id="line2d_20"/>
     <g id="text_12">
      <!-- SmolVLM -->
      <g transform="translate(53.182969 493.913158) scale(0.09 -0.09)">
       <defs>
        <path id="DejaVuSans-56" d="M 1831 0 
L 50 4666 
L 709 4666 
L 2188 738 
L 3669 4666 
L 4325 4666 
L 2547 0 
L 1831 0 
z
" transform="scale(0.015625)"/>
        <path id="DejaVuSans-4c" d="M 628 4666 
L 1259 4666 
L 1259 531 
L 3531 531 
L 3531 0 
L 628 0 
L 628 4666 
z
" transform="scale(0.015625)"/>
       </defs>
       <use xlink:href="#DejaVuSans-53"/>
       <use xlink:href="#DejaVuSans-6d" transform="translate(63.476562 0)"/>
       <use xlink:href="#DejaVuSans-6f" transform="translate(160.888672 0)"/>
       <use xlink:href="#DejaVuSans-6c" transform="translate(222.070312 0)"/>
       <use xlink:href="#DejaVuSans-56" transform="translate(249.853516 0)"/>
       <use xlink:href="#DejaVuSans-4c" transform="translate(318.261719 0)"/>
       <use xlink:href="#DejaVuSans-4d" transform="translate(373.974609 0)"/>
      </g>
     </g>
    </g>
    <g id="ytick_3">
     <g id="line2d_21"/>
     <g id="text_13">
      <!-- LLama-3 -->
      <g transform="translate(55.807031 458.306399) scale(0.09 -0.09)">
       <defs>
        <path id="DejaVuSans-33" d="M 2597 2516 
Q 3050 2419 3304 2112 
Q 3559 1806 3559 1356 
Q 3559 666 3084 287 
Q 2609 -91 1734 -91 
Q 1441 -91 1130 -33 
Q 819 25 488 141 
L 488 750 
Q 750 597 1062 519 
Q 1375 441 1716 441 
Q 2309 441 2620 675 
Q 2931 909 2931 1356 
Q 2931 1769 2642 2001 
Q 2353 2234 1838 2234 
L 1294 2234 
L 1294 2753 
L 1863 2753 
Q 2328 2753 2575 2939 
Q 2822 3125 2822 3475 
Q 2822 3834 2567 4026 
Q 2313 4219 1838 4219 
Q 1578 4219 1281 4162 
Q 984 4106 628 3988 
L 628 4550 
Q 988 4650 1302 4700 
Q 1616 4750 1894 4750 
Q 2613 4750 3031 4423 
Q 3450 4097 3450 3541 
Q 3450 3153 3228 2886 
Q 3006 2619 2597 2516 
z
" transform="scale(0.015625)"/>
       </defs>
       <use xlink:href="#DejaVuSans-4c"/>
       <use xlink:href="#DejaVuSans-4c" transform="translate(55.712891 0)"/>
       <use xlink:href="#DejaVuSans-61" transform="translate(111.425781 0)"/>
       <use xlink:href="#DejaVuSans-6d" transform="translate(172.705078 0)"/>
       <use xlink:href="#DejaVuSans-61" transform="translate(270.117188 0)"/>
       <use xlink:href="#DejaVuSans-2d" transform="translate(331.396484 0)"/>
       <use xlink:href="#DejaVuSans-33" transform="translate(367.480469 0)"/>
      </g>
     </g>
    </g>
    <g id="ytick_4">
     <g id="line2d_22"/>
     <g id="text_14">
      <!-- phi-4 -->
      <g transform="translate(71.715937 422.69964) scale(0.09 -0.09)">
       <defs>
        <path id="DejaVuSans-34" d="M 2419 4116 
L 825 1625 
L 2419 1625 
L 2419 4116 
z
M 2253 4666 
L 3047 4666 
L 3047 1625 
L 3713 1625 
L 3713 1100 
L 3047 1100 
L 3047 0 
L 2419 0 
L 2419 1100 
L 313 1100 
L 313 1709 
L 2253 4666 
z
" transform="scale(0.015625)"/>
       </defs>
       <use xlink:href="#DejaVuSans-70"/>
       <use xlink:href="#DejaVuSans-68" transform="translate(63.476562 0)"/>
       <use xlink:href="#DejaVuSans-69" transform="translate(126.855469 0)"/>
       <use xlink:href="#DejaVuSans-2d" transform="translate(154.638672 0)"/>
       <use xlink:href="#DejaVuSans-34" transform="translate(190.722656 0)"/>
      </g>
     </g>
    </g>
    <g id="ytick_5">
     <g id="line2d_23"/>
     <g id="text_15">
      <!-- GPT-4 -->
      <g transform="translate(68.5575 387.09288) scale(0.09 -0.09)">
       <defs>
        <path id="DejaVuSans-47" d="M 3809 666 
L 3809 1919 
L 2778 1919 
L 2778 2438 
L 4434 2438 
L 4434 434 
Q 4069 175 3628 42 
Q 3188 -91 2688 -91 
Q 1594 -91 976 548 
Q 359 1188 359 2328 
Q 359 3472 976 4111 
Q 1594 4750 2688 4750 
Q 3144 4750 3555 4637 
Q 3966 4525 4313 4306 
L 4313 3634 
Q 3963 3931 3569 4081 
Q 3175 4231 2741 4231 
Q 1884 4231 1454 3753 
Q 1025 3275 1025 2328 
Q 1025 1384 1454 906 
Q 1884 428 2741 428 
Q 3075 428 3337 486 
Q 3600 544 3809 666 
z
" transform="scale(0.015625)"/>
        <path id="DejaVuSans-50" d="M 1259 4147 
L 1259 2394 
L 2053 2394 
Q 2494 2394 2734 2622 
Q 2975 2850 2975 3272 
Q 2975 3691 2734 3919 
Q 2494 4147 2053 4147 
L 1259 4147 
z
M 628 4666 
L 2053 4666 
Q 2838 4666 3239 4311 
Q 3641 3956 3641 3272 
Q 3641 2581 3239 2228 
Q 2838 1875 2053 1875 
L 1259 1875 
L 1259 0 
L 628 0 
L 628 4666 
z
" transform="scale(0.015625)"/>
       </defs>
       <use xlink:href="#DejaVuSans-47"/>
       <use xlink:href="#DejaVuSans-50" transform="translate(77.490234 0)"/>
       <use xlink:href="#DejaVuSans-54" transform="translate(137.792969 0)"/>
       <use xlink:href="#DejaVuSans-2d" transform="translate(189.751953 0)"/>
       <use xlink:href="#DejaVuSans-34" transform="translate(225.835938 0)"/>
      </g>
     </g>
    </g>
    <g id="ytick_6">
     <g id="line2d_24"/>
     <g id="text_16">
      <!-- Qwen2.5 -->
      <g transform="translate(54.6075 351.486121) scale(0.09 -0.09)">
       <defs>
        <path id="DejaVuSans-51" d="M 2522 4238 
Q 1834 4238 1429 3725 
Q 1025 3213 1025 2328 
Q 1025 1447 1429 934 
Q 1834 422 2522 422 
Q 3209 422 3611 934 
Q 4013 1447 4013 2328 
Q 4013 3213 3611 3725 
Q 3209 4238 2522 4238 
z
M 3406 84 
L 4238 -825 
L 3475 -825 
L 2784 -78 
Q 2681 -84 2626 -87 
Q 2572 -91 2522 -91 
Q 1538 -91 948 567 
Q 359 1225 359 2328 
Q 359 3434 948 4092 
Q 1538 4750 2522 4750 
Q 3503 4750 4090 4092 
Q 4678 3434 4678 2328 
Q 4678 1516 4351 937 
Q 4025 359 3406 84 
z
" transform="scale(0.015625)"/>
       </defs>
       <use xlink:href="#DejaVuSans-51"/>
       <use xlink:href="#DejaVuSans-77" transform="translate(78.710938 0)"/>
       <use xlink:href="#DejaVuSans-65" transform="translate(160.498047 0)"/>
       <use xlink:href="#DejaVuSans-6e" transform="translate(222.021484 0)"/>
       <use xlink:href="#DejaVuSans-32" transform="translate(285.400391 0)"/>
       <use xlink:href="#DejaVuSans-2e" transform="translate(349.023438 0)"/>
       <use xlink:href="#DejaVuSans-35" transform="translate(380.810547 0)"/>
      </g>
     </g>
    </g>
    <g id="ytick_7">
     <g id="line2d_25"/>
     <g id="text_17">
      <!-- DeepSeek-V3 -->
      <g transform="translate(34.285781 315.879362) scale(0.09 -0.09)">
       <use xlink:href="#DejaVuSans-44"/>
       <use xlink:href="#DejaVuSans-65" transform="translate(77.001953 0)"/>
       <use xlink:href="#DejaVuSans-65" transform="translate(138.525391 0)"/>
       <use xlink:href="#DejaVuSans-70" transform="translate(200.048828 0)"/>
       <use xlink:href="#DejaVuSans-53" transform="translate(263.525391 0)"/>
       <use xlink:href="#DejaVuSans-65" transform="translate(327.001953 0)"/>
       <use xlink:href="#DejaVuSans-65" transform="translate(388.525391 0)"/>
       <use xlink:href="#DejaVuSans-6b" transform="translate(450.048828 0)"/>
       <use xlink:href="#DejaVuSans-2d" transform="translate(507.958984 0)"/>
       <use xlink:href="#DejaVuSans-56" transform="translate(538.167969 0)"/>
       <use xlink:href="#DejaVuSans-33" transform="translate(606.576172 0)"/>
      </g>
     </g>
    </g>
    <g id="ytick_8">
     <g id="line2d_26"/>
     <g id="text_18">
      <!-- mistral-small-3.1 -->
      <g transform="translate(18.63 280.272602) scale(0.09 -0.09)">
       <use xlink:href="#DejaVuSans-6d"/>
       <use xlink:href="#DejaVuSans-69" transform="translate(97.412109 0)"/>
       <use xlink:href="#DejaVuSans-73" transform="translate(125.195312 0)"/>
       <use xlink:href="#DejaVuSans-74" transform="translate(177.294922 0)"/>
       <use xlink:href="#DejaVuSans-72" transform="translate(216.503906 0)"/>
       <use xlink:href="#DejaVuSans-61" transform="translate(257.617188 0)"/>
       <use xlink:href="#DejaVuSans-6c" transform="translate(318.896484 0)"/>
       <use xlink:href="#DejaVuSans-2d" transform="translate(346.679688 0)"/>
       <use xlink:href="#DejaVuSans-73" transform="translate(382.763672 0)"/>
       <use xlink:href="#DejaVuSans-6d" transform="translate(434.863281 0)"/>
       <use xlink:href="#DejaVuSans-61" transform="translate(532.275391 0)"/>
       <use xlink:href="#DejaVuSans-6c" transform="translate(593.554688 0)"/>
       <use xlink:href="#DejaVuSans-6c" transform="translate(621.337891 0)"/>
       <use xlink:href="#DejaVuSans-2d" transform="translate(649.121094 0)"/>
       <use xlink:href="#DejaVuSans-33" transform="translate(685.205078 0)"/>
       <use xlink:href="#DejaVuSans-2e" transform="translate(748.828125 0)"/>
       <use xlink:href="#DejaVuSans-31" transform="translate(780.615234 0)"/>
      </g>
     </g>
    </g>
    <g id="ytick_9">
     <g id="line2d_27"/>
     <g id="text_19">
      <!-- Gemma-2 -->
      <g transform="translate(50.07375 244.665843) scale(0.09 -0.09)">
       <use xlink:href="#DejaVuSans-47"/>
       <use xlink:href="#DejaVuSans-65" transform="translate(77.490234 0)"/>
       <use xlink:href="#DejaVuSans-6d" transform="translate(139.013672 0)"/>
       <use xlink:href="#DejaVuSans-6d" transform="translate(236.425781 0)"/>
       <use xlink:href="#DejaVuSans-61" transform="translate(333.837891 0)"/>
       <use xlink:href="#DejaVuSans-2d" transform="translate(395.117188 0)"/>
       <use xlink:href="#DejaVuSans-32" transform="translate(431.201172 0)"/>
      </g>
     </g>
    </g>
    <g id="ytick_10">
     <g id="line2d_28"/>
     <g id="text_20">
      <!-- LLama-4 -->
      <g transform="translate(55.807031 209.059083) scale(0.09 -0.09)">
       <use xlink:href="#DejaVuSans-4c"/>
       <use xlink:href="#DejaVuSans-4c" transform="translate(55.712891 0)"/>
       <use xlink:href="#DejaVuSans-61" transform="translate(111.425781 0)"/>
       <use xlink:href="#DejaVuSans-6d" transform="translate(172.705078 0)"/>
       <use xlink:href="#DejaVuSans-61" transform="translate(270.117188 0)"/>
       <use xlink:href="#DejaVuSans-2d" transform="translate(331.396484 0)"/>
       <use xlink:href="#DejaVuSans-34" transform="translate(367.480469 0)"/>
      </g>
     </g>
    </g>
    <g id="ytick_11">
     <g id="line2d_29"/>
     <g id="text_21">
      <!-- Gemma-3 -->
      <g transform="translate(50.07375 173.452324) scale(0.09 -0.09)">
       <use xlink:href="#DejaVuSans-47"/>
       <use xlink:href="#DejaVuSans-65" transform="translate(77.490234 0)"/>
       <use xlink:href="#DejaVuSans-6d" transform="translate(139.013672 0)"/>
       <use xlink:href="#DejaVuSans-6d" transform="translate(236.425781 0)"/>
       <use xlink:href="#DejaVuSans-61" transform="translate(333.837891 0)"/>
       <use xlink:href="#DejaVuSans-2d" transform="translate(395.117188 0)"/>
       <use xlink:href="#DejaVuSans-33" transform="translate(431.201172 0)"/>
      </g>
     </g>
    </g>
    <g id="ytick_12">
     <g id="line2d_30"/>
     <g id="text_22">
      <!-- Sarvam-1 -->
      <g transform="translate(51.096094 137.845565) scale(0.09 -0.09)">
       <use xlink:href="#DejaVuSans-53"/>
       <use xlink:href="#DejaVuSans-61" transform="translate(63.476562 0)"/>
       <use xlink:href="#DejaVuSans-72" transform="translate(124.755859 0)"/>
       <use xlink:href="#DejaVuSans-76" transform="translate(165.869141 0)"/>
       <use xlink:href="#DejaVuSans-61" transform="translate(225.048828 0)"/>
       <use xlink:href="#DejaVuSans-6d" transform="translate(286.328125 0)"/>
       <use xlink:href="#DejaVuSans-2d" transform="translate(383.740234 0)"/>
       <use xlink:href="#DejaVuSans-31" transform="translate(419.824219 0)"/>
      </g>
     </g>
    </g>
    <g id="ytick_13">
     <g id="line2d_31"/>
     <g id="text_23">
      <!-- MalayalamBPE -->
      <g transform="translate(28.397813 102.238805) scale(0.09 -0.09)">
       <defs>
        <path id="DejaVuSans-42" d="M 1259 2228 
L 1259 519 
L 2272 519 
Q 2781 519 3026 730 
Q 3272 941 3272 1375 
Q 3272 1813 3026 2020 
Q 2781 2228 2272 2228 
L 1259 2228 
z
M 1259 4147 
L 1259 2741 
L 2194 2741 
Q 2656 2741 2882 2914 
Q 3109 3088 3109 3444 
Q 3109 3797 2882 3972 
Q 2656 4147 2194 4147 
L 1259 4147 
z
M 628 4666 
L 2241 4666 
Q 2963 4666 3353 4366 
Q 3744 4066 3744 3513 
Q 3744 3084 3544 2831 
Q 3344 2578 2956 2516 
Q 3422 2416 3680 2098 
Q 3938 1781 3938 1306 
Q 3938 681 3513 340 
Q 3088 0 2303 0 
L 628 0 
L 628 4666 
z
" transform="scale(0.015625)"/>
       </defs>
       <use xlink:href="#DejaVuSans-4d"/>
       <use xlink:href="#DejaVuSans-61" transform="translate(86.279297 0)"/>
       <use xlink:href="#DejaVuSans-6c" transform="translate(147.558594 0)"/>
       <use xlink:href="#DejaVuSans-61" transform="translate(175.341797 0)"/>
       <use xlink:href="#DejaVuSans-79" transform="translate(236.621094 0)"/>
       <use xlink:href="#DejaVuSans-61" transform="translate(295.800781 0)"/>
       <use xlink:href="#DejaVuSans-6c" transform="translate(357.080078 0)"/>
       <use xlink:href="#DejaVuSans-61" transform="translate(384.863281 0)"/>
       <use xlink:href="#DejaVuSans-6d" transform="translate(446.142578 0)"/>
       <use xlink:href="#DejaVuSans-42" transform="translate(543.554688 0)"/>
       <use xlink:href="#DejaVuSans-50" transform="translate(612.158203 0)"/>
       <use xlink:href="#DejaVuSans-45" transform="translate(672.460938 0)"/>
      </g>
     </g>
    </g>
    <g id="ytick_14">
     <g id="line2d_32"/>
     <g id="text_24">
      <!-- MalayalamUnigram -->
      <g transform="translate(7.2 66.632046) scale(0.09 -0.09)">
       <defs>
        <path id="DejaVuSans-55" d="M 556 4666 
L 1191 4666 
L 1191 1831 
Q 1191 1081 1462 751 
Q 1734 422 2344 422 
Q 2950 422 3222 751 
Q 3494 1081 3494 1831 
L 3494 4666 
L 4128 4666 
L 4128 1753 
Q 4128 841 3676 375 
Q 3225 -91 2344 -91 
Q 1459 -91 1007 375 
Q 556 841 556 1753 
L 556 4666 
z
" transform="scale(0.015625)"/>
       </defs>
       <use xlink:href="#DejaVuSans-4d"/>
       <use xlink:href="#DejaVuSans-61" transform="translate(86.279297 0)"/>
       <use xlink:href="#DejaVuSans-6c" transform="translate(147.558594 0)"/>
       <use xlink:href="#DejaVuSans-61" transform="translate(175.341797 0)"/>
       <use xlink:href="#DejaVuSans-79" transform="translate(236.621094 0)"/>
       <use xlink:href="#DejaVuSans-61" transform="translate(295.800781 0)"/>
       <use xlink:href="#DejaVuSans-6c" transform="translate(357.080078 0)"/>
       <use xlink:href="#DejaVuSans-61" transform="translate(384.863281 0)"/>
       <use xlink:href="#DejaVuSans-6d" transform="translate(446.142578 0)"/>
       <use xlink:href="#DejaVuSans-55" transform="translate(543.554688 0)"/>
       <use xlink:href="#DejaVuSans-6e" transform="translate(616.748047 0)"/>
       <use xlink:href="#DejaVuSans-69" transform="translate(680.126953 0)"/>
       <use xlink:href="#DejaVuSans-67" transform="translate(707.910156 0)"/>
       <use xlink:href="#DejaVuSans-72" transform="translate(771.386719 0)"/>
       <use xlink:href="#DejaVuSans-61" transform="translate(812.5 0)"/>
       <use xlink:href="#DejaVuSans-6d" transform="translate(873.779297 0)"/>
      </g>
     </g>
    </g>
   </g>
   <g id="patch_3">
    <path d="M 98.106875 536.782649 
L 575.999732 536.782649 
L 575.999732 515.418593 
L 98.106875 515.418593 
z
" clip-path="url(#pfc24d0e52c)" style="fill: #8da0b3"/>
   </g>
   <g id="patch_4">
    <path d="M 98.106875 501.175889 
L 575.999732 501.175889 
L 575.999732 479.811834 
L 98.106875 479.811834 
z
" clip-path="url(#pfc24d0e52c)" style="fill: #8da0b3"/>
   </g>
   <g id="patch_5">
    <path d="M 98.106875 465.56913 
L 477.539395 465.56913 
L 477.539395 444.205074 
L 98.106875 444.205074 
z
" clip-path="url(#pfc24d0e52c)" style="fill: #8da0b3"/>
   </g>
   <g id="patch_6">
    <path d="M 98.106875 429.962371 
L 477.539395 429.962371 
L 477.539395 408.598315 
L 98.106875 408.598315 
z
" clip-path="url(#pfc24d0e52c)" style="fill: #8da0b3"/>
   </g>
   <g id="patch_7">
    <path d="M 98.106875 394.355611 
L 477.539395 394.355611 
L 477.539395 372.991556 
L 98.106875 372.991556 
z
" clip-path="url(#pfc24d0e52c)" style="fill: #8da0b3"/>
   </g>
   <g id="patch_8">
    <path d="M 98.106875 358.748852 
L 410.298189 358.748852 
L 410.298189 337.384796 
L 98.106875 337.384796 
z
" clip-path="url(#pfc24d0e52c)" style="fill: #8da0b3"/>
   </g>
   <g id="patch_9">
    <path d="M 98.106875 323.142092 
L 283.020192 323.142092 
L 283.020192 301.778037 
L 98.106875 301.778037 
z
" clip-path="url(#pfc24d0e52c)" style="fill: #8da0b3"/>
   </g>
   <g id="patch_10">
    <path d="M 98.106875 287.535333 
L 254.202532 287.535333 
L 254.202532 266.171278 
L 98.106875 266.171278 
z
" clip-path="url(#pfc24d0e52c)" style="fill: #8da0b3"/>
   </g>
   <g id="patch_11">
    <path d="M 98.106875 251.928574 
L 242.195174 251.928574 
L 242.195174 230.564518 
L 98.106875 230.564518 
z
" clip-path="url(#pfc24d0e52c)" style="fill: #8da0b3"/>
   </g>
   <g id="patch_12">
    <path d="M 98.106875 216.321814 
L 218.180457 216.321814 
L 218.180457 194.957759 
L 98.106875 194.957759 
z
" clip-path="url(#pfc24d0e52c)" style="fill: #8da0b3"/>
   </g>
   <g id="patch_13">
    <path d="M 98.106875 180.715055 
L 172.552496 180.715055 
L 172.552496 159.350999 
L 98.106875 159.350999 
z
" clip-path="url(#pfc24d0e52c)" style="fill: #8da0b3"/>
   </g>
   <g id="patch_14">
    <path d="M 98.106875 145.108296 
L 170.151024 145.108296 
L 170.151024 123.74424 
L 98.106875 123.74424 
z
" clip-path="url(#pfc24d0e52c)" style="fill: #8da0b3"/>
   </g>
   <g id="patch_15">
    <path d="M 98.106875 109.501536 
L 143.734836 109.501536 
L 143.734836 88.137481 
L 98.106875 88.137481 
z
" clip-path="url(#pfc24d0e52c)" style="fill: #e07b39"/>
   </g>
   <g id="patch_16">
    <path d="M 98.106875 73.894777 
L 143.734836 73.894777 
L 143.734836 52.530721 
L 98.106875 52.530721 
z
" clip-path="url(#pfc24d0e52c)" style="fill: #e07b39"/>
   </g>
   <g id="patch_17">
    <path d="M 98.106875 560.995245 
L 633.346875 560.995245 
" style="fill: none; stroke: #cccccc; stroke-width: 0.8; stroke-linejoin: miter; stroke-linecap: square"/>
   </g>
   <g id="text_25">
    <!-- 19.9 -->
    <g style="fill: #333333" transform="translate(579.60194 528.584058) scale(0.09 -0.09)">
     <defs>
      <path id="DejaVuSans-39" d="M 703 97 
L 703 672 
Q 941 559 1184 500 
Q 1428 441 1663 441 
Q 2288 441 2617 861 
Q 2947 1281 2994 2138 
Q 2813 1869 2534 1725 
Q 2256 1581 1919 1581 
Q 1219 1581 811 2004 
Q 403 2428 403 3163 
Q 403 3881 828 4315 
Q 1253 4750 1959 4750 
Q 2769 4750 3195 4129 
Q 3622 3509 3622 2328 
Q 3622 1225 3098 567 
Q 2575 -91 1691 -91 
Q 1453 -91 1209 -44 
Q 966 3 703 97 
z
M 1959 2075 
Q 2384 2075 2632 2365 
Q 2881 2656 2881 3163 
Q 2881 3666 2632 3958 
Q 2384 4250 1959 4250 
Q 1534 4250 1286 3958 
Q 1038 3666 1038 3163 
Q 1038 2656 1286 2365 
Q 1534 2075 1959 2075 
z
" transform="scale(0.015625)"/>
     </defs>
     <use xlink:href="#DejaVuSans-31"/>
     <use xlink:href="#DejaVuSans-39" transform="translate(63.623047 0)"/>
     <use xlink:href="#DejaVuSans-2e" transform="translate(127.246094 0)"/>
     <use xlink:href="#DejaVuSans-39" transform="translate(159.033203 0)"/>
    </g>
   </g>
   <g id="text_26">
    <!-- 19.9 -->
    <g style="fill: #333333" transform="translate(579.60194 492.977299) scale(0.09 -0.09)">
     <use xlink:href="#DejaVuSans-31"/>
     <use xlink:href="#DejaVuSans-39" transform="translate(63.623047 0)"/>
     <use xlink:href="#DejaVuSans-2e" transform="translate(127.246094 0)"/>
     <use xlink:href="#DejaVuSans-39" transform="translate(159.033203 0)"/>
    </g>
   </g>
   <g id="text_27">
    <!-- 15.8 -->
    <g style="fill: #333333" transform="translate(481.141602 457.37054) scale(0.09 -0.09)">
     <defs>
      <path id="DejaVuSans-38" d="M 2034 2216 
Q 1584 2216 1326 1975 
Q 1069 1734 1069 1313 
Q 1069 891 1326 650 
Q 1584 409 2034 409 
Q 2484 409 2743 651 
Q 3003 894 3003 1313 
Q 3003 1734 2745 1975 
Q 2488 2216 2034 2216 
z
M 1403 2484 
Q 997 2584 770 2862 
Q 544 3141 544 3541 
Q 544 4100 942 4425 
Q 1341 4750 2034 4750 
Q 2731 4750 3128 4425 
Q 3525 4100 3525 3541 
Q 3525 3141 3298 2862 
Q 3072 2584 2669 2484 
Q 3125 2378 3379 2068 
Q 3634 1759 3634 1313 
Q 3634 634 3220 271 
Q 2806 -91 2034 -91 
Q 1263 -91 848 271 
Q 434 634 434 1313 
Q 434 1759 690 2068 
Q 947 2378 1403 2484 
z
M 1172 3481 
Q 1172 3119 1398 2916 
Q 1625 2713 2034 2713 
Q 2441 2713 2670 2916 
Q 2900 3119 2900 3481 
Q 2900 3844 2670 4047 
Q 2441 4250 2034 4250 
Q 1625 4250 1398 4047 
Q 1172 3844 1172 3481 
z
" transform="scale(0.015625)"/>
     </defs>
     <use xlink:href="#DejaVuSans-31"/>
     <use xlink:href="#DejaVuSans-35" transform="translate(63.623047 0)"/>
     <use xlink:href="#DejaVuSans-2e" transform="translate(127.246094 0)"/>
     <use xlink:href="#DejaVuSans-38" transform="translate(159.033203 0)"/>
    </g>
   </g>
   <g id="text_28">
    <!-- 15.8 -->
    <g style="fill: #333333" transform="translate(481.141602 421.76378) scale(0.09 -0.09)">
     <use xlink:href="#DejaVuSans-31"/>
     <use xlink:href="#DejaVuSans-35" transform="translate(63.623047 0)"/>
     <use xlink:href="#DejaVuSans-2e" transform="translate(127.246094 0)"/>
     <use xlink:href="#DejaVuSans-38" transform="translate(159.033203 0)"/>
    </g>
   </g>
   <g id="text_29">
    <!-- 15.8 -->
    <g style="fill: #333333" transform="translate(481.141602 386.157021) scale(0.09 -0.09)">
     <use xlink:href="#DejaVuSans-31"/>
     <use xlink:href="#DejaVuSans-35" transform="translate(63.623047 0)"/>
     <use xlink:href="#DejaVuSans-2e" transform="translate(127.246094 0)"/>
     <use xlink:href="#DejaVuSans-38" transform="translate(159.033203 0)"/>
    </g>
   </g>
   <g id="text_30">
    <!-- 13.0 -->
    <g style="fill: #333333" transform="translate(413.900396 350.550262) scale(0.09 -0.09)">
     <use xlink:href="#DejaVuSans-31"/>
     <use xlink:href="#DejaVuSans-33" transform="translate(63.623047 0)"/>
     <use xlink:href="#DejaVuSans-2e" transform="translate(127.246094 0)"/>
     <use xlink:href="#DejaVuSans-30" transform="translate(159.033203 0)"/>
    </g>
   </g>
   <g id="text_31">
    <!-- 7.7 -->
    <g style="fill: #333333" transform="translate(286.622399 314.943502) scale(0.09 -0.09)">
     <use xlink:href="#DejaVuSans-37"/>
     <use xlink:href="#DejaVuSans-2e" transform="translate(63.623047 0)"/>
     <use xlink:href="#DejaVuSans-37" transform="translate(95.410156 0)"/>
    </g>
   </g>
   <g id="text_32">
    <!-- 6.5 -->
    <g style="fill: #333333" transform="translate(257.804739 279.336743) scale(0.09 -0.09)">
     <defs>
      <path id="DejaVuSans-36" d="M 2113 2584 
Q 1688 2584 1439 2293 
Q 1191 2003 1191 1497 
Q 1191 994 1439 701 
Q 1688 409 2113 409 
Q 2538 409 2786 701 
Q 3034 994 3034 1497 
Q 3034 2003 2786 2293 
Q 2538 2584 2113 2584 
z
M 3366 4563 
L 3366 3988 
Q 3128 4100 2886 4159 
Q 2644 4219 2406 4219 
Q 1781 4219 1451 3797 
Q 1122 3375 1075 2522 
Q 1259 2794 1537 2939 
Q 1816 3084 2150 3084 
Q 2853 3084 3261 2657 
Q 3669 2231 3669 1497 
Q 3669 778 3244 343 
Q 2819 -91 2113 -91 
Q 1303 -91 875 529 
Q 447 1150 447 2328 
Q 447 3434 972 4092 
Q 1497 4750 2381 4750 
Q 2619 4750 2861 4703 
Q 3103 4656 3366 4563 
z
" transform="scale(0.015625)"/>
     </defs>
     <use xlink:href="#DejaVuSans-36"/>
     <use xlink:href="#DejaVuSans-2e" transform="translate(63.623047 0)"/>
     <use xlink:href="#DejaVuSans-35" transform="translate(95.410156 0)"/>
    </g>
   </g>
   <g id="text_33">
    <!-- 6.0 -->
    <g style="fill: #333333" transform="translate(245.797381 243.729983) scale(0.09 -0.09)">
     <use xlink:href="#DejaVuSans-36"/>
     <use xlink:href="#DejaVuSans-2e" transform="translate(63.623047 0)"/>
     <use xlink:href="#DejaVuSans-30" transform="translate(95.410156 0)"/>
    </g>
   </g>
   <g id="text_34">
    <!-- 5.0 -->
    <g style="fill: #333333" transform="translate(221.782665 208.123224) scale(0.09 -0.09)">
     <use xlink:href="#DejaVuSans-35"/>
     <use xlink:href="#DejaVuSans-2e" transform="translate(63.623047 0)"/>
     <use xlink:href="#DejaVuSans-30" transform="translate(95.410156 0)"/>
    </g>
   </g>
   <g id="text_35">
    <!-- 3.1 -->
    <g style="fill: #333333" transform="translate(176.154703 172.516465) scale(0.09 -0.09)">
     <use xlink:href="#DejaVuSans-33"/>
     <use xlink:href="#DejaVuSans-2e" transform="translate(63.623047 0)"/>
     <use xlink:href="#DejaVuSans-31" transform="translate(95.410156 0)"/>
    </g>
   </g>
   <g id="text_36">
    <!-- 3.0 -->
    <g style="fill: #333333" transform="translate(173.753232 136.909705) scale(0.09 -0.09)">
     <use xlink:href="#DejaVuSans-33"/>
     <use xlink:href="#DejaVuSans-2e" transform="translate(63.623047 0)"/>
     <use xlink:href="#DejaVuSans-30" transform="translate(95.410156 0)"/>
    </g>
   </g>
   <g id="text_37">
    <!-- 1.9 -->
    <g style="fill: #333333" transform="translate(147.337044 101.302946) scale(0.09 -0.09)">
     <use xlink:href="#DejaVuSans-31"/>
     <use xlink:href="#DejaVuSans-2e" transform="translate(63.623047 0)"/>
     <use xlink:href="#DejaVuSans-39" transform="translate(95.410156 0)"/>
    </g>
   </g>
   <g id="text_38">
    <!-- 1.9 -->
    <g style="fill: #333333" transform="translate(147.337044 65.696187) scale(0.09 -0.09)">
     <use xlink:href="#DejaVuSans-31"/>
     <use xlink:href="#DejaVuSans-2e" transform="translate(63.623047 0)"/>
     <use xlink:href="#DejaVuSans-39" transform="translate(95.410156 0)"/>
    </g>
   </g>
   <g id="text_39">
    <!-- Malayalam tokenizer fertility across major LLMs -->
    <g transform="translate(98.106875 16.318125) scale(0.12 -0.12)">
     <defs>
      <path id="DejaVuSans-Bold-4d" d="M 588 4666 
L 2119 4666 
L 3181 2169 
L 4250 4666 
L 5778 4666 
L 5778 0 
L 4641 0 
L 4641 3413 
L 3566 897 
L 2803 897 
L 1728 3413 
L 1728 0 
L 588 0 
L 588 4666 
z
" transform="scale(0.015625)"/>
      <path id="DejaVuSans-Bold-61" d="M 2106 1575 
Q 1756 1575 1579 1456 
Q 1403 1338 1403 1106 
Q 1403 894 1545 773 
Q 1688 653 1941 653 
Q 2256 653 2472 879 
Q 2688 1106 2688 1447 
L 2688 1575 
L 2106 1575 
z
M 3816 1997 
L 3816 0 
L 2688 0 
L 2688 519 
Q 2463 200 2181 54 
Q 1900 -91 1497 -91 
Q 953 -91 614 226 
Q 275 544 275 1050 
Q 275 1666 698 1953 
Q 1122 2241 2028 2241 
L 2688 2241 
L 2688 2328 
Q 2688 2594 2478 2717 
Q 2269 2841 1825 2841 
Q 1466 2841 1156 2769 
Q 847 2697 581 2553 
L 581 3406 
Q 941 3494 1303 3539 
Q 1666 3584 2028 3584 
Q 2975 3584 3395 3211 
Q 3816 2838 3816 1997 
z
" transform="scale(0.015625)"/>
      <path id="DejaVuSans-Bold-6c" d="M 538 4863 
L 1656 4863 
L 1656 0 
L 538 0 
L 538 4863 
z
" transform="scale(0.015625)"/>
      <path id="DejaVuSans-Bold-79" d="M 78 3500 
L 1197 3500 
L 2138 1125 
L 2938 3500 
L 4056 3500 
L 2584 -331 
Q 2363 -916 2067 -1148 
Q 1772 -1381 1288 -1381 
L 641 -1381 
L 641 -647 
L 991 -647 
Q 1275 -647 1404 -556 
Q 1534 -466 1606 -231 
L 1638 -134 
L 78 3500 
z
" transform="scale(0.015625)"/>
      <path id="DejaVuSans-Bold-6d" d="M 3781 2919 
Q 3994 3244 4286 3414 
Q 4578 3584 4928 3584 
Q 5531 3584 5847 3212 
Q 6163 2841 6163 2131 
L 6163 0 
L 5038 0 
L 5038 1825 
Q 5041 1866 5042 1909 
Q 5044 1953 5044 2034 
Q 5044 2406 4934 2573 
Q 4825 2741 4581 2741 
Q 4263 2741 4089 2478 
Q 3916 2216 3909 1719 
L 3909 0 
L 2784 0 
L 2784 1825 
Q 2784 2406 2684 2573 
Q 2584 2741 2328 2741 
Q 2006 2741 1831 2477 
Q 1656 2213 1656 1722 
L 1656 0 
L 531 0 
L 531 3500 
L 1656 3500 
L 1656 2988 
Q 1863 3284 2130 3434 
Q 2397 3584 2719 3584 
Q 3081 3584 3359 3409 
Q 3638 3234 3781 2919 
z
" transform="scale(0.015625)"/>
      <path id="DejaVuSans-Bold-20" transform="scale(0.015625)"/>
      <path id="DejaVuSans-Bold-74" d="M 1759 4494 
L 1759 3500 
L 2913 3500 
L 2913 2700 
L 1759 2700 
L 1759 1216 
Q 1759 972 1856 886 
Q 1953 800 2241 800 
L 2816 800 
L 2816 0 
L 1856 0 
Q 1194 0 917 276 
Q 641 553 641 1216 
L 641 2700 
L 84 2700 
L 84 3500 
L 641 3500 
L 641 4494 
L 1759 4494 
z
" transform="scale(0.015625)"/>
      <path id="DejaVuSans-Bold-6f" d="M 2203 2784 
Q 1831 2784 1636 2517 
Q 1441 2250 1441 1747 
Q 1441 1244 1636 976 
Q 1831 709 2203 709 
Q 2569 709 2762 976 
Q 2956 1244 2956 1747 
Q 2956 2250 2762 2517 
Q 2569 2784 2203 2784 
z
M 2203 3584 
Q 3106 3584 3614 3096 
Q 4122 2609 4122 1747 
Q 4122 884 3614 396 
Q 3106 -91 2203 -91 
Q 1297 -91 786 396 
Q 275 884 275 1747 
Q 275 2609 786 3096 
Q 1297 3584 2203 3584 
z
" transform="scale(0.015625)"/>
      <path id="DejaVuSans-Bold-6b" d="M 538 4863 
L 1656 4863 
L 1656 2216 
L 2944 3500 
L 4244 3500 
L 2534 1894 
L 4378 0 
L 3022 0 
L 1656 1459 
L 1656 0 
L 538 0 
L 538 4863 
z
" transform="scale(0.015625)"/>
      <path id="DejaVuSans-Bold-65" d="M 4031 1759 
L 4031 1441 
L 1416 1441 
Q 1456 1047 1700 850 
Q 1944 653 2381 653 
Q 2734 653 3104 758 
Q 3475 863 3866 1075 
L 3866 213 
Q 3469 63 3072 -14 
Q 2675 -91 2278 -91 
Q 1328 -91 801 392 
Q 275 875 275 1747 
Q 275 2603 792 3093 
Q 1309 3584 2216 3584 
Q 3041 3584 3536 3087 
Q 4031 2591 4031 1759 
z
M 2881 2131 
Q 2881 2450 2695 2645 
Q 2509 2841 2209 2841 
Q 1884 2841 1681 2658 
Q 1478 2475 1428 2131 
L 2881 2131 
z
" transform="scale(0.015625)"/>
      <path id="DejaVuSans-Bold-6e" d="M 4056 2131 
L 4056 0 
L 2931 0 
L 2931 347 
L 2931 1631 
Q 2931 2084 2911 2256 
Q 2891 2428 2841 2509 
Q 2775 2619 2662 2680 
Q 2550 2741 2406 2741 
Q 2056 2741 1856 2470 
Q 1656 2200 1656 1722 
L 1656 0 
L 538 0 
L 538 3500 
L 1656 3500 
L 1656 2988 
Q 1909 3294 2193 3439 
Q 2478 3584 2822 3584 
Q 3428 3584 3742 3212 
Q 4056 2841 4056 2131 
z
" transform="scale(0.015625)"/>
      <path id="DejaVuSans-Bold-69" d="M 538 3500 
L 1656 3500 
L 1656 0 
L 538 0 
L 538 3500 
z
M 538 4863 
L 1656 4863 
L 1656 3950 
L 538 3950 
L 538 4863 
z
" transform="scale(0.015625)"/>
      <path id="DejaVuSans-Bold-7a" d="M 366 3500 
L 3419 3500 
L 3419 2719 
L 1575 800 
L 3419 800 
L 3419 0 
L 288 0 
L 288 781 
L 2131 2700 
L 366 2700 
L 366 3500 
z
" transform="scale(0.015625)"/>
      <path id="DejaVuSans-Bold-72" d="M 3138 2547 
Q 2991 2616 2845 2648 
Q 2700 2681 2553 2681 
Q 2122 2681 1889 2404 
Q 1656 2128 1656 1613 
L 1656 0 
L 538 0 
L 538 3500 
L 1656 3500 
L 1656 2925 
Q 1872 3269 2151 3426 
Q 2431 3584 2822 3584 
Q 2878 3584 2943 3579 
Q 3009 3575 3134 3559 
L 3138 2547 
z
" transform="scale(0.015625)"/>
      <path id="DejaVuSans-Bold-66" d="M 2841 4863 
L 2841 4128 
L 2222 4128 
Q 1984 4128 1890 4042 
Q 1797 3956 1797 3744 
L 1797 3500 
L 2753 3500 
L 2753 2700 
L 1797 2700 
L 1797 0 
L 678 0 
L 678 2700 
L 122 2700 
L 122 3500 
L 678 3500 
L 678 3744 
Q 678 4316 997 4589 
Q 1316 4863 1984 4863 
L 2841 4863 
z
" transform="scale(0.015625)"/>
      <path id="DejaVuSans-Bold-63" d="M 3366 3391 
L 3366 2478 
Q 3138 2634 2908 2709 
Q 2678 2784 2431 2784 
Q 1963 2784 1702 2511 
Q 1441 2238 1441 1747 
Q 1441 1256 1702 982 
Q 1963 709 2431 709 
Q 2694 709 2930 787 
Q 3166 866 3366 1019 
L 3366 103 
Q 3103 6 2833 -42 
Q 2563 -91 2291 -91 
Q 1344 -91 809 395 
Q 275 881 275 1747 
Q 275 2613 809 3098 
Q 1344 3584 2291 3584 
Q 2566 3584 2833 3536 
Q 3100 3488 3366 3391 
z
" transform="scale(0.015625)"/>
      <path id="DejaVuSans-Bold-73" d="M 3272 3391 
L 3272 2541 
Q 2913 2691 2578 2766 
Q 2244 2841 1947 2841 
Q 1628 2841 1473 2761 
Q 1319 2681 1319 2516 
Q 1319 2381 1436 2309 
Q 1553 2238 1856 2203 
L 2053 2175 
Q 2913 2066 3209 1816 
Q 3506 1566 3506 1031 
Q 3506 472 3093 190 
Q 2681 -91 1863 -91 
Q 1516 -91 1145 -36 
Q 775 19 384 128 
L 384 978 
Q 719 816 1070 734 
Q 1422 653 1784 653 
Q 2113 653 2278 743 
Q 2444 834 2444 1013 
Q 2444 1163 2330 1236 
Q 2216 1309 1875 1350 
L 1678 1375 
Q 931 1469 631 1722 
Q 331 1975 331 2491 
Q 331 3047 712 3315 
Q 1094 3584 1881 3584 
Q 2191 3584 2531 3537 
Q 2872 3491 3272 3391 
z
" transform="scale(0.015625)"/>
      <path id="DejaVuSans-Bold-6a" d="M 538 3500 
L 1656 3500 
L 1656 63 
Q 1656 -641 1318 -1011 
Q 981 -1381 341 -1381 
L -213 -1381 
L -213 -647 
L -19 -647 
Q 300 -647 419 -503 
Q 538 -359 538 63 
L 538 3500 
z
M 538 4863 
L 1656 4863 
L 1656 3950 
L 538 3950 
L 538 4863 
z
" transform="scale(0.015625)"/>
      <path id="DejaVuSans-Bold-4c" d="M 588 4666 
L 1791 4666 
L 1791 909 
L 3903 909 
L 3903 0 
L 588 0 
L 588 4666 
z
" transform="scale(0.015625)"/>
     </defs>
     <use xlink:href="#DejaVuSans-Bold-4d"/>
     <use xlink:href="#DejaVuSans-Bold-61" transform="translate(99.511719 0)"/>
     <use xlink:href="#DejaVuSans-Bold-6c" transform="translate(166.992188 0)"/>
     <use xlink:href="#DejaVuSans-Bold-61" transform="translate(201.269531 0)"/>
     <use xlink:href="#DejaVuSans-Bold-79" transform="translate(265.625 0)"/>
     <use xlink:href="#DejaVuSans-Bold-61" transform="translate(330.810547 0)"/>
     <use xlink:href="#DejaVuSans-Bold-6c" transform="translate(398.291016 0)"/>
     <use xlink:href="#DejaVuSans-Bold-61" transform="translate(432.568359 0)"/>
     <use xlink:href="#DejaVuSans-Bold-6d" transform="translate(500.048828 0)"/>
     <use xlink:href="#DejaVuSans-Bold-20" transform="translate(604.248047 0)"/>
     <use xlink:href="#DejaVuSans-Bold-74" transform="translate(639.0625 0)"/>
     <use xlink:href="#DejaVuSans-Bold-6f" transform="translate(686.865234 0)"/>
     <use xlink:href="#DejaVuSans-Bold-6b" transform="translate(755.566406 0)"/>
     <use xlink:href="#DejaVuSans-Bold-65" transform="translate(819.445312 0)"/>
     <use xlink:href="#DejaVuSans-Bold-6e" transform="translate(887.267578 0)"/>
     <use xlink:href="#DejaVuSans-Bold-69" transform="translate(958.458984 0)"/>
     <use xlink:href="#DejaVuSans-Bold-7a" transform="translate(992.736328 0)"/>
     <use xlink:href="#DejaVuSans-Bold-65" transform="translate(1050.939453 0)"/>
     <use xlink:href="#DejaVuSans-Bold-72" transform="translate(1118.761719 0)"/>
     <use xlink:href="#DejaVuSans-Bold-20" transform="translate(1168.078125 0)"/>
     <use xlink:href="#DejaVuSans-Bold-66" transform="translate(1202.892578 0)"/>
     <use xlink:href="#DejaVuSans-Bold-65" transform="translate(1246.398438 0)"/>
     <use xlink:href="#DejaVuSans-Bold-72" transform="translate(1314.220703 0)"/>
     <use xlink:href="#DejaVuSans-Bold-74" transform="translate(1363.537109 0)"/>
     <use xlink:href="#DejaVuSans-Bold-69" transform="translate(1411.339844 0)"/>
     <use xlink:href="#DejaVuSans-Bold-6c" transform="translate(1445.617188 0)"/>
     <use xlink:href="#DejaVuSans-Bold-69" transform="translate(1479.894531 0)"/>
     <use xlink:href="#DejaVuSans-Bold-74" transform="translate(1514.171875 0)"/>
     <use xlink:href="#DejaVuSans-Bold-79" transform="translate(1561.974609 0)"/>
     <use xlink:href="#DejaVuSans-Bold-20" transform="translate(1627.160156 0)"/>
     <use xlink:href="#DejaVuSans-Bold-61" transform="translate(1661.974609 0)"/>
     <use xlink:href="#DejaVuSans-Bold-63" transform="translate(1729.455078 0)"/>
     <use xlink:href="#DejaVuSans-Bold-72" transform="translate(1788.732422 0)"/>
     <use xlink:href="#DejaVuSans-Bold-6f" transform="translate(1838.048828 0)"/>
     <use xlink:href="#DejaVuSans-Bold-73" transform="translate(1906.75 0)"/>
     <use xlink:href="#DejaVuSans-Bold-73" transform="translate(1966.271484 0)"/>
     <use xlink:href="#DejaVuSans-Bold-20" transform="translate(2025.792969 0)"/>
     <use xlink:href="#DejaVuSans-Bold-6d" transform="translate(2060.607422 0)"/>
     <use xlink:href="#DejaVuSans-Bold-61" transform="translate(2164.806641 0)"/>
     <use xlink:href="#DejaVuSans-Bold-6a" transform="translate(2232.287109 0)"/>
     <use xlink:href="#DejaVuSans-Bold-6f" transform="translate(2266.564453 0)"/>
     <use xlink:href="#DejaVuSans-Bold-72" transform="translate(2335.265625 0)"/>
     <use xlink:href="#DejaVuSans-Bold-20" transform="translate(2384.582031 0)"/>
     <use xlink:href="#DejaVuSans-Bold-4c" transform="translate(2419.396484 0)"/>
     <use xlink:href="#DejaVuSans-Bold-4c" transform="translate(2483.117188 0)"/>
     <use xlink:href="#DejaVuSans-Bold-4d" transform="translate(2546.837891 0)"/>
     <use xlink:href="#DejaVuSans-Bold-73" transform="translate(2646.349609 0)"/>
    </g>
   </g>
   <g id="legend_1">
    <g id="patch_18">
     <path d="M 201.388984 655.980354 
L 530.064766 655.980354 
Q 531.864766 655.980354 531.864766 654.180354 
L 531.864766 641.870042 
Q 531.864766 640.070042 530.064766 640.070042 
L 201.388984 640.070042 
Q 199.588984 640.070042 199.588984 641.870042 
L 199.588984 654.180354 
Q 199.588984 655.980354 201.388984 655.980354 
L 201.388984 655.980354 
z
" style="fill: none; opacity: 0"/>
    </g>
    <g id="patch_19">
     <path d="M 203.188984 650.508636 
L 213.988984 650.508636 
L 213.988984 644.208636 
L 203.188984 644.208636 
z
" style="fill: #e07b39"/>
    </g>
    <g id="text_40">
     <!-- Malayalam-specific tokenizer -->
     <g transform="translate(221.188984 650.508636) scale(0.09 -0.09)">
      <defs>
       <path id="DejaVuSans-66" d="M 2375 4863 
L 2375 4384 
L 1825 4384 
Q 1516 4384 1395 4259 
Q 1275 4134 1275 3809 
L 1275 3500 
L 2222 3500 
L 2222 3053 
L 1275 3053 
L 1275 0 
L 697 0 
L 697 3053 
L 147 3053 
L 147 3500 
L 697 3500 
L 697 3744 
Q 697 4328 969 4595 
Q 1241 4863 1831 4863 
L 2375 4863 
z
" transform="scale(0.015625)"/>
       <path id="DejaVuSans-7a" d="M 353 3500 
L 3084 3500 
L 3084 2975 
L 922 459 
L 3084 459 
L 3084 0 
L 275 0 
L 275 525 
L 2438 3041 
L 353 3041 
L 353 3500 
z
" transform="scale(0.015625)"/>
      </defs>
      <use xlink:href="#DejaVuSans-4d"/>
      <use xlink:href="#DejaVuSans-61" transform="translate(86.279297 0)"/>
      <use xlink:href="#DejaVuSans-6c" transform="translate(147.558594 0)"/>
      <use xlink:href="#DejaVuSans-61" transform="translate(175.341797 0)"/>
      <use xlink:href="#DejaVuSans-79" transform="translate(236.621094 0)"/>
      <use xlink:href="#DejaVuSans-61" transform="translate(295.800781 0)"/>
      <use xlink:href="#DejaVuSans-6c" transform="translate(357.080078 0)"/>
      <use xlink:href="#DejaVuSans-61" transform="translate(384.863281 0)"/>
      <use xlink:href="#DejaVuSans-6d" transform="translate(446.142578 0)"/>
      <use xlink:href="#DejaVuSans-2d" transform="translate(543.554688 0)"/>
      <use xlink:href="#DejaVuSans-73" transform="translate(579.638672 0)"/>
      <use xlink:href="#DejaVuSans-70" transform="translate(631.738281 0)"/>
      <use xlink:href="#DejaVuSans-65" transform="translate(695.214844 0)"/>
      <use xlink:href="#DejaVuSans-63" transform="translate(756.738281 0)"/>
      <use xlink:href="#DejaVuSans-69" transform="translate(811.71875 0)"/>
      <use xlink:href="#DejaVuSans-66" transform="translate(839.501953 0)"/>
      <use xlink:href="#DejaVuSans-69" transform="translate(874.707031 0)"/>
      <use xlink:href="#DejaVuSans-63" transform="translate(902.490234 0)"/>
      <use xlink:href="#DejaVuSans-20" transform="translate(957.470703 0)"/>
      <use xlink:href="#DejaVuSans-74" transform="translate(989.257812 0)"/>
      <use xlink:href="#DejaVuSans-6f" transform="translate(1028.466797 0)"/>
      <use xlink:href="#DejaVuSans-6b" transform="translate(1089.648438 0)"/>
      <use xlink:href="#DejaVuSans-65" transform="translate(1143.933594 0)"/>
      <use xlink:href="#DejaVuSans-6e" transform="translate(1205.457031 0)"/>
      <use xlink:href="#DejaVuSans-69" transform="translate(1268.835938 0)"/>
      <use xlink:href="#DejaVuSans-7a" transform="translate(1296.619141 0)"/>
      <use xlink:href="#DejaVuSans-65" transform="translate(1349.109375 0)"/>
      <use xlink:href="#DejaVuSans-72" transform="translate(1410.632812 0)"/>
     </g>
    </g>
    <g id="patch_20">
     <path d="M 369.846484 650.508636 
L 380.646484 650.508636 
L 380.646484 644.208636 
L 369.846484 644.208636 
z
" style="fill: #8da0b3"/>
    </g>
    <g id="text_41">
     <!-- General-purpose LLM tokenizer -->
     <g transform="translate(387.846484 650.508636) scale(0.09 -0.09)">
      <use xlink:href="#DejaVuSans-47"/>
      <use xlink:href="#DejaVuSans-65" transform="translate(77.490234 0)"/>
      <use xlink:href="#DejaVuSans-6e" transform="translate(139.013672 0)"/>
      <use xlink:href="#DejaVuSans-65" transform="translate(202.392578 0)"/>
      <use xlink:href="#DejaVuSans-72" transform="translate(263.916016 0)"/>
      <use xlink:href="#DejaVuSans-61" transform="translate(305.029297 0)"/>
      <use xlink:href="#DejaVuSans-6c" transform="translate(366.308594 0)"/>
      <use xlink:href="#DejaVuSans-2d" transform="translate(394.091797 0)"/>
      <use xlink:href="#DejaVuSans-70" transform="translate(430.175781 0)"/>
      <use xlink:href="#DejaVuSans-75" transform="translate(493.652344 0)"/>
      <use xlink:href="#DejaVuSans-72" transform="translate(557.03125 0)"/>
      <use xlink:href="#DejaVuSans-70" transform="translate(598.144531 0)"/>
      <use xlink:href="#DejaVuSans-6f" transform="translate(661.621094 0)"/>
      <use xlink:href="#DejaVuSans-73" transform="translate(722.802734 0)"/>
      <use xlink:href="#DejaVuSans-65" transform="translate(774.902344 0)"/>
      <use xlink:href="#DejaVuSans-20" transform="translate(836.425781 0)"/>
      <use xlink:href="#DejaVuSans-4c" transform="translate(868.212891 0)"/>
      <use xlink:href="#DejaVuSans-4c" transform="translate(923.925781 0)"/>
      <use xlink:href="#DejaVuSans-4d" transform="translate(979.638672 0)"/>
      <use xlink:href="#DejaVuSans-20" transform="translate(1065.917969 0)"/>
      <use xlink:href="#DejaVuSans-74" transform="translate(1097.705078 0)"/>
      <use xlink:href="#DejaVuSans-6f" transform="translate(1136.914062 0)"/>
      <use xlink:href="#DejaVuSans-6b" transform="translate(1198.095703 0)"/>
      <use xlink:href="#DejaVuSans-65" transform="translate(1252.380859 0)"/>
      <use xlink:href="#DejaVuSans-6e" transform="translate(1313.904297 0)"/>
      <use xlink:href="#DejaVuSans-69" transform="translate(1377.283203 0)"/>
      <use xlink:href="#DejaVuSans-7a" transform="translate(1405.066406 0)"/>
      <use xlink:href="#DejaVuSans-65" transform="translate(1457.556641 0)"/>
      <use xlink:href="#DejaVuSans-72" transform="translate(1519.080078 0)"/>
     </g>
    </g>
   </g>
  </g>
 </g>
 <defs>
  <clipPath id="pfc24d0e52c">
   <rect x="98.106875" y="28.318125" width="535.24" height="532.67712"/>
  </clipPath>
 </defs>
</svg>
